<?xml version="1.0" encoding="UTF-8"?> <svg xmlns="http://www.w3.org/2000/svg" id="Layer_1" data-name="Layer 1" viewBox="0 0 502.09 393.48"><defs><style>.cls-1{fill:#011f44;}.cls-2{fill:#3f3f3f;}.cls-3{fill:#707070;}.cls-4{fill:#9b9a9a;}.cls-5{fill:#a0a0a0;stroke:#8e8e8e;stroke-miterlimit:10;}.cls-6{fill:#8e8e8e;}.cls-7{fill:#bf1c74;}.cls-8{fill:#eaeaea;}.cls-9{fill:#efb405;}.cls-10{fill:#ef8505;}</style></defs><path class="cls-1" d="M389.92,97.41c-.05,0-.1,0-.15,0v0Zm-46.72,0c-.05,0-.1,0-.16,0v0Z" transform="translate(-167.17 -7.78)"></path><path class="cls-2" d="M506.69,232l.46,1.24c-2.2-1.15-4.45-2.23-6.61-3.45-16.48-9.34-33-18.66-49.39-28.11-4.76-2.74-9.81-5-14.12-8.5,2.41-5.9,6.11-11.12,9-16.79,2-4.06,5.06-7.63,6.17-12.16.82-1.25.86-2.73,1.23-4.11.86-3.31.94-7.15,2.75-9.82,6.77-10,14.11-19.53,21.23-29.25,3.12-.91,5.85-2.69,8.83-3.9a8.43,8.43,0,0,0,4.71-4.61c1.91-4.14,4.09-8.15,6.16-12.21a8,8,0,0,0,1.38,1.18q12.82,6.66,25.69,13.27c1.39,8.53,2.81,17.06,4.15,25.6,1.61,10.18,3.16,20.37,4.73,30.56-1.21-1-2.18,0-3.14.46-5,2.21-10.06,4.43-15,6.78-7.14,3.36-14.29,6.64-22.23,7.71-.73.1-1.71,0-2.2.9-3.14.12-6.13,1.08-9.19,1.65-2.29.42-2.94,1.07-1.39,3.37,8.13,12.07,16.06,24.27,24.12,36.39.59.9.87,2.21,2.24,2.44l0,0A1.1,1.1,0,0,0,506.69,232Z" transform="translate(-167.17 -7.78)"></path><path d="M437,193.22c4.31,3.48,9.36,5.75,14.12,8.49,16.41,9.45,32.91,18.77,49.39,28.11,2.16,1.22,4.41,2.3,6.61,3.45,1.23,8.7.63,17.48,1.24,26.2.18,2.52,1.31,6-.42,7.34-1.44,1.09-4.53-1.13-6.87-1.94-12.88-4.45-25.76-8.91-38.6-13.47a7.34,7.34,0,0,0-5.67.15q-18.56,7.77-37.21,15.35c-1,.41-2,1.26-3.24.77-.16-.91-.24-1.85-.48-2.75q-9.31-34.61-18.65-69.21c-1.85-6.92-4.13-13.72-5.41-20.79,7.91,3.23,15.8,6.51,23.73,9.68C422.73,187.47,429.63,191,437,193.22Z" transform="translate(-167.17 -7.78)"></path><path class="cls-3" d="M289,80.24c.23-1.06,1.18-1.4,1.95-1.89q34.11-21.94,68.23-43.87a20.36,20.36,0,0,1,2.2-1.08c-.27,1,.54,1.49,1.1,2.07,4.8,5.06,9.64,10.07,14.42,15.15,3.84,4.1,7.48,8.39,11.43,12.37,5.86,5.9,11,12.47,17.32,17.95a1.71,1.71,0,0,1-.1.5,2.91,2.91,0,0,0-.58.15c-.33,0-.68.07-.59.55l0,0c-1.75-.4-3.26.46-4.83.92Q358,95.46,316.51,107.94c-4.2-4-8.25-8.23-12.25-12.49A192,192,0,0,0,289,80.24Z" transform="translate(-167.17 -7.78)"></path><path d="M340.09,236.89l-50-6.16c-6.21-.77-12.41-1.65-18.64-2.27-2.18-.22-2.24-1-1.6-2.74q8.94-24.34,17.79-48.74l.18-.16q19.63,1.94,39.28,3.88c11.74,1.19,23.47,2.44,35.21,3.67-3.84,9-7.73,17.94-11.49,26.95C347.24,219.85,343.17,228.16,340.09,236.89Z" transform="translate(-167.17 -7.78)"></path><path class="cls-4" d="M340.09,236.89c3.08-8.73,7.15-17,10.72-25.57,3.76-9,7.65-18,11.49-26.95l.27-.32c7.77-2.55,15.53-5.13,23.32-7.6,1.94-.62,3.77-1.79,5.95-1.53,1.28,7.07,3.56,13.87,5.41,20.79q9.27,34.62,18.65,69.21c.24.9.32,1.84.48,2.75-11.18-4.47-22.37-8.91-33.54-13.42Q361.45,245.61,340.09,236.89Z" transform="translate(-167.17 -7.78)"></path><path d="M533,171c-1.57-10.19-3.12-20.38-4.73-30.56-1.34-8.54-2.76-17.07-4.15-25.6l22.6,1.74c4.22,3.49,8.35,7.08,12.68,10.43,4.14,3.21,7.85,7,12.36,9.73-1.41,8.74-4.16,17.19-5.68,25.89a57.46,57.46,0,0,1-9.37,22.57c-5.23,7.73-9.06,16.39-16.19,22.86-3.36,3.05-6.64,5.92-10.86,7.68-3.14,1.32-6.16,2.93-9.11,4.36-.65-.45-.27-.73-.14-.88,6.76-7.57,8.89-17.3,12.28-26.43.71-1.91.43-3.94.37-5.9C532.92,181.56,534.07,176.26,533,171Z" transform="translate(-167.17 -7.78)"></path><path d="M287.81,176.82l-.18.16Q275,155.41,262.38,133.85c-.81-1.37-1.17-2.47-.34-4q13-24,25.87-48.15a12.68,12.68,0,0,1,1.1-1.46,192,192,0,0,1,15.25,15.21c4,4.26,8.05,8.44,12.25,12.49,0,.13,0,.26,0,.39-.44.82-.95,1.6-1.31,2.46q-7.38,17.55-14.72,35.14C296.21,156.21,292,166.52,287.81,176.82Z" transform="translate(-167.17 -7.78)"></path><path class="cls-5" d="M481.53,8.35l1.31.22A7.58,7.58,0,0,0,485,11.18Q496.7,23,508.39,34.7c.86.87,2,1.57,2.22,2.93L491.27,56.49c-9.59-1.45-19.18-2.85-28.75-4.38-6.08-1-12.13-2-18.23,0a34.21,34.21,0,0,1-4.29.83L418,36.54q15.67-7,31.35-13.95Q465.43,15.45,481.53,8.35Z" transform="translate(-167.17 -7.78)"></path><path class="cls-2" d="M510.62,37.63c-.24-1.36-1.37-2.06-2.23-2.93Q496.72,22.93,485,11.18a7.58,7.58,0,0,1-2.19-2.61l33.91,7.36c2.55.55,5.07,1.32,7.64,1.64,9.32,1.14,16.28,7.18,24.13,11.37a4.56,4.56,0,0,1,1.62,2.25C553.58,38,557,44.78,560.49,51.55a4.48,4.48,0,0,1,.28,4.15c-1.25,2.95-1.68,6.21-3.36,9-2.45-.63-4.27-3-7.16-2.49-5.3.94-10.61,1.79-15.92,2.68-.55-3-3.33-4.39-5.1-6.46C523.2,51.35,517.2,44.23,510.62,37.63Z" transform="translate(-167.17 -7.78)"></path><path class="cls-2" d="M418,36.54l22,16.37c-11.43,9.37-23.31,18.18-34.34,28-6.3-5.49-11.46-12.06-17.32-18-3.95-4-7.59-8.27-11.43-12.37-4.78-5.08-9.62-10.09-14.42-15.15-.56-.58-1.37-1-1.1-2.07a.47.47,0,0,1,.28-.16c6.36.4,12.71.85,19.07,1.21C393.15,35.17,405.56,35.84,418,36.54Z" transform="translate(-167.17 -7.78)"></path><path class="cls-6" d="M418,36.54c-12.41-.7-24.82-1.37-37.23-2.09-6.36-.36-12.71-.81-19.07-1.21,14.9-8,30.37-14.53,47-18.13,7.52-1.63,14.95-3.75,22.35-5.88a39,39,0,0,1,11.71-1.44c12.93.27,25.86.39,38.79.56q-16.09,7.13-32.21,14.24Z" transform="translate(-167.17 -7.78)"></path><path d="M517.4,352c8.8-11.34,26.88-10.09,33.13,2.48.55,0,.61-.47.82-.79,5.22-7.91,12.94-11.17,21.82-9.2,8.2,1.83,13,7.59,14.45,17.18,1.15,7.79.42,15.64.66,23.46.11,3.44.05,6.89.07,10.33,0,3-2.11,4.3-5,3.2-1.32-.51-.76-1.59-.77-2.4-.08-8.88-.07-17.75-.13-26.63a30.86,30.86,0,0,0-1.81-11.06c-2.29-5.83-6.9-8.76-13.5-8.65-6.17.1-10.54,3.16-12.63,8.94A29.93,29.93,0,0,0,553,369.33c.06,9,0,18,.16,26.94.06,2.49-1,2.62-2.92,2.57s-3,.13-3-2.48c.06-9.92-.17-19.84-.33-29.76a18.62,18.62,0,0,0-.36-3.41c-1.82-9.11-7-13.59-15.1-13.11-7.84.46-12.64,5.55-13.48,14.52-.88,9.38,0,18.79-.18,28.18,0,.84,0,1.67,0,2.51,0,3.92,0,3.83-4,3.67-1.53-.06-1.94-.59-1.95-2q0-24.9-.22-49.81c0-2.39,1.53-1.84,2.71-1.72s3.2-1.08,3.1,1.62C517.36,348.46,517.4,349.91,517.4,352Z" transform="translate(-167.17 -7.78)"></path><path class="cls-2" d="M571.78,136.71c-4.51-2.75-8.22-6.52-12.36-9.73-4.33-3.35-8.46-6.94-12.68-10.43-.16-6.35.45-12.69.9-19,.36-5,.45-10.15.78-15.2.39-6,1.24-12,.64-18h.09l.63.17,5.11,5.11c4.44,10.67,8.91,21.33,13.31,32,1.41,3.45,1.08,7.19,1.43,10.8C570.44,120.51,571.07,128.61,571.78,136.71Z" transform="translate(-167.17 -7.78)"></path><path d="M231.34,400.64a25.82,25.82,0,0,0-3.54,0c-2,.29-2.83-.6-3.54-2.46-7.21-18.77-14.53-37.49-21.82-56.23-1.11-2.86-2.24-5.71-3.4-8.66-1.16.84-1.24,1.95-1.59,2.89Q185.86,367.06,174.31,398a4.72,4.72,0,0,1-6.26,3c-1.76-.7-.37-1.79-.09-2.54,4.33-11.72,8.74-23.42,13.13-35.13,4.8-12.77,9.65-25.53,14.36-38.34a2.7,2.7,0,0,1,3.18-2.09c1.63.07,2.8.09,3.56,2.06,9.52,24.8,19.17,49.55,28.77,74.32A12.93,12.93,0,0,1,231.34,400.64Z" transform="translate(-167.17 -7.78)"></path><path d="M460.48,352.54c3.62-4.54,8-7.37,13.65-7.74,13.76-.9,22,6.47,22.93,21.3.62,10.41.24,20.88.36,31.32,0,2.85-2.06,1.61-3.34,1.81-1.48.24-2.53.07-2.51-2,.08-8.88,0-17.75-.05-26.63a34.44,34.44,0,0,0-1.23-9.59c-1.81-6.25-6.13-9.9-12.25-10.44-7-.63-12.47,2.15-15.45,7.82a24,24,0,0,0-2.45,11.51c0,8.87,0,17.75.13,26.62,0,1.91,0,3.16-2.55,2.95-2-.17-3.36.09-3.36-2.83q0-36.18-.48-72.36c0-2.34.55-3,2.91-3s3,.46,3,2.91c-.11,8.46.05,16.92.14,25.37C459.93,350.48,459.61,351.44,460.48,352.54Z" transform="translate(-167.17 -7.78)"></path><path d="M325.83,400.83c-15-.05-26.15-11.88-26.11-27.76s11.38-27.63,26.35-27.58c14.55,0,25.48,11.9,25.51,27.66S340.6,400.88,325.83,400.83Zm19.7-27.94a23.53,23.53,0,0,0-.73-6.34c-2.14-8.88-9.11-14.88-17.86-15.36-9.24-.51-16.75,4.66-19.85,13.57a27.27,27.27,0,0,0-1.1,12.35c1.53,13.16,13.89,21.24,26.16,17.18C340.27,391.6,345.49,383.44,345.53,372.89Z" transform="translate(-167.17 -7.78)"></path><path d="M647.33,398.92c-15.59.07-27.5-13.25-26.33-29.44,1.13-15.75,12.27-26.37,27.31-25.86a23.62,23.62,0,0,1,18.52,9.64c.54.69,2.34,1.82.47,2.61-1.45.61-2.8,3.47-4.93.77a18.41,18.41,0,0,0-14.25-7.4c-11.13-.41-19.72,7-21,18.11A26.67,26.67,0,0,0,629,381.46a19.57,19.57,0,0,0,34,3.73c2.08-2.85,3.64-.86,5.21-.11,2.26,1.09.14,2.34-.41,3.16A24.25,24.25,0,0,1,647.33,398.92Z" transform="translate(-167.17 -7.78)"></path><path d="M554.89,69.59l-5.11-5.1c-.1-.48-.33-.45-.63-.17l-.09,0c-1.12.74-2.25,1.48-3.36,2.24C534.3,74.43,524,83.89,511.39,90a48.92,48.92,0,0,0-14.32,10.4c-2.07,4.06-4.25,8.07-6.16,12.21a8.43,8.43,0,0,1-4.71,4.61c-3,1.21-5.71,3-8.83,3.9a.21.21,0,0,0-.31-.14c7.64-13.47,16.26-26.34,24.62-39.36,4.09-.68,8.19-1.28,12.25-2.09,1.58-.32,3.31-.2,4.7-1.38,5.21-4.43,10.47-8.81,15.7-13.21,5.31-.89,10.62-1.74,15.92-2.68,2.89-.52,4.71,1.86,7.16,2.49A14.73,14.73,0,0,1,554.89,69.59Z" transform="translate(-167.17 -7.78)"></path><path d="M249.54,376.51c0,7-.1,14,.05,21,0,2.36-.45,3.13-3,3.2-2.91.09-2.82-1.31-2.83-3.37,0-13.89-.23-27.77-.21-41.66,0-2.45-.65-3.47-3.13-3.08-.61.1-1.27-.08-1.88,0-2.68.5-2.87-.93-3-3.14-.15-2.62,1-2.8,3.09-2.75,4.83.11,4.83,0,4.83-4.92,0-3.86-.09-7.74,1-11.49,3.12-10.41,14.28-9.93,20.82-5.73,1.11.72.68,1.46,0,2-1,.83-.88,3-3.07,2.35-9.93-2.94-12.9-.73-12.86,9.65,0,2.67-1.21,6.32.58,7.73s5.18.42,7.88.44c3.36,0,4.6,1.8,3.59,5-.34,1-1.06.84-1.73.84-2.61,0-5.23.16-7.83,0-2.16-.16-2.58.71-2.55,2.66.1,7.1,0,14.2,0,21.3Z" transform="translate(-167.17 -7.78)"></path><path d="M428.21,370.08c0,5.22-.12,10.45,0,15.66.22,7.87,5.76,11.12,12.54,7.1,3-1.76,3.24.51,4.34,1.81,1.74,2.06-.5,2.47-1.5,3.1-9.91,6.21-20.05,1.4-21.09-10.22-1-10.93-.41-21.91-.44-32.86,0-2.57-.8-3.3-3.14-3a16,16,0,0,1-2.19,0,3.47,3.47,0,0,1-2.87-5.23c.54-1,1.48-.54,2.23-.56,5.89-.19,5.89-.17,5.9-6.11,0-2,.05-4,0-5.94a1.92,1.92,0,0,1,1.62-2.21c4.19-1.36,4.18-1.42,4.23,2.93,0,3,.15,6.06.09,9.08,0,1.6.48,2.24,2.15,2.17,2.71-.11,5.43.1,8.14-.06s1.85,1.84,1.95,3.17.41,3-2,2.77c-2.7-.2-5.43,0-8.14-.08-1.7-.08-2.09.57-2.07,2.15.09,5.43,0,10.86,0,16.28Z" transform="translate(-167.17 -7.78)"></path><path d="M274,354.08c0-11.38,0-22.77,0-34.15,0-2.21.17-3.37,2.92-3.28,2.45.07,3.12.68,3.12,3.15,0,21.52.15,43,.25,64.54,0,1.47,0,2.94.14,4.39.62,6.12,4,8.33,9.63,5.86,2.45-1.07,2.66.23,3.54,1.67,1.28,2.1-.34,2.53-1.58,3.18-8.73,4.58-17,0-17.33-10-.41-11.17-.31-22.35-.43-33.52,0-.63,0-1.26,0-1.88Z" transform="translate(-167.17 -7.78)"></path><path d="M369.46,352.55c4.87-4.63,10-7.45,16.48-7.27.93,0,3.15-.85,2.58,1.33-.4,1.56,1,4.41-2.67,4.49-9.21.2-15.2,6-15.91,15.52-.75,10.1,0,20.23-.14,30.35,0,1,.61,2.45-.64,2.76a11.88,11.88,0,0,1-4.64,0c-.84-.12-.59-1.21-.59-1.9-.1-16.59-.15-33.18-.32-49.78,0-2.23,1.25-2.06,2.57-1.86s3.43-1.14,3.29,1.77C369.39,349.48,369.46,351,369.46,352.55Z" transform="translate(-167.17 -7.78)"></path><path d="M610,371.67c0,8.15-.09,16.3.06,24.44,0,2.3-.94,2.61-2.78,2.47-1.58-.12-3.29.57-3.28-2.28q.07-24.76-.18-49.51c0-2.86,1.84-1.81,3.15-2,1.47-.14,2.77-.31,2.72,2.08-.15,8.25-.06,16.5-.06,24.75Z" transform="translate(-167.17 -7.78)"></path><path class="cls-6" d="M506.19,230.67c-1.37-.23-1.65-1.54-2.24-2.44-8.06-12.12-16-24.32-24.12-36.39-1.55-2.3-.9-3,1.39-3.37,3.06-.57,6-1.53,9.19-1.65C496,201.33,501.31,215.91,506.19,230.67Z" transform="translate(-167.17 -7.78)"></path><path d="M403.88,373.18c0,7.94-.1,15.88.06,23.81,0,2.33-.77,2.71-2.84,2.7s-3.07-.23-3.06-2.8q.07-24.13-.27-48.26c0-2.45.9-2.65,2.88-2.65s3.2.09,3.14,2.76c-.2,8.14-.07,16.29-.07,24.44Z" transform="translate(-167.17 -7.78)"></path><path d="M404.79,331.59a4.18,4.18,0,0,1-4.22,4.13,4.05,4.05,0,0,1-4.05-4.26,4,4,0,0,1,4-4A4.14,4.14,0,0,1,404.79,331.59Z" transform="translate(-167.17 -7.78)"></path><path d="M606.47,326.38a4.12,4.12,0,0,1,4.3,4,4.18,4.18,0,0,1-4.15,4.21c-2.34-.16-3.89-1.4-4.06-3.91A3.94,3.94,0,0,1,606.47,326.38Z" transform="translate(-167.17 -7.78)"></path><path class="cls-7" d="M506.69,232a1.1,1.1,0,0,1-.54-1.41C506.72,230.94,506.72,231.48,506.69,232Z" transform="translate(-167.17 -7.78)"></path><path class="cls-3" d="M391.84,174.92c-2.18-.26-4,.91-5.95,1.53-7.79,2.47-15.55,5.05-23.32,7.6-.27-6-.55-12.06-.8-18.08-.09-2.19,0-4.38-.14-6.57-.45-9.86-1.45-19.71-1-29.6,5.67,2.64,11.28,5.43,17,7.89,6.9,3,13.44,6.73,20.58,9.13q24.76,8.33,49.56,16.55c1.27.42,2.51,1.07,3.93.88H452l.21,0c-1.11,4.53-4.13,8.1-6.17,12.16-2.85,5.67-6.55,10.89-9,16.79-7.4-2.25-14.3-5.74-21.46-8.61C407.64,181.43,399.75,178.15,391.84,174.92Z" transform="translate(-167.17 -7.78)"></path><path class="cls-4" d="M452.16,164.26l-.21,0h-.21c-7.43-13.05-15.62-25.66-22.31-39.14-3.23-6.53-7.57-12.47-10.67-19.09,7-3.24,14.44-5.23,21.57-8.08a4.22,4.22,0,0,1,4.56.52c6.82,5,13.64,9.9,20.57,14.7,3.83,2.64,7.28,5.86,11.6,7.78a.21.21,0,0,1,.31.14c-7.12,9.72-14.46,19.29-21.23,29.25-1.81,2.67-1.89,6.51-2.75,9.82C453,161.53,453,163,452.16,164.26Z" transform="translate(-167.17 -7.78)"></path><path class="cls-3" d="M497.07,100.36A48.92,48.92,0,0,1,511.39,90C524,83.89,534.3,74.43,545.7,66.58c1.11-.76,2.24-1.5,3.36-2.24.6,6-.25,12-.64,18-.33,5-.42,10.15-.78,15.2-.45,6.3-1.06,12.64-.9,19l-22.6-1.74q-12.85-6.63-25.69-13.27A8,8,0,0,1,497.07,100.36Z" transform="translate(-167.17 -7.78)"></path><path class="cls-8" d="M477.06,120.94c-4.32-1.92-7.77-5.14-11.6-7.78-6.93-4.8-13.75-9.75-20.57-14.7a4.22,4.22,0,0,0-4.56-.52c-7.13,2.85-14.59,4.84-21.57,8.08-1-.66-1.34-1.81-1.86-2.81q-5.68-10.87-11.34-21.77a1.71,1.71,0,0,0,.1-.5c11-9.85,22.91-18.66,34.34-28a34.21,34.21,0,0,0,4.29-.83c6.1-1.95,12.15-.93,18.23,0,9.57,1.53,19.16,2.93,28.75,4.38l10.41,25.09C493.32,94.6,484.7,107.47,477.06,120.94Zm-28-61a21.27,21.27,0,0,0-.28,4.29c.38,2.52,1.41,4.85-.15,7.5-.65,1.11,1.25,2,2.45,1.92,3.47-.22,5.22-3.64,3.63-6.83C453.41,64.27,451.47,62.29,449,59.94Z" transform="translate(-167.17 -7.78)"></path><path class="cls-2" d="M405.56,81.44q5.67,10.89,11.34,21.77c.52,1,.82,2.15,1.86,2.81,3.1,6.62,7.44,12.56,10.67,19.09,6.69,13.48,14.88,26.09,22.31,39.14-1.42.19-2.66-.46-3.93-.88q-24.8-8.25-49.56-16.55c-7.14-2.4-13.68-6.17-20.58-9.13-5.75-2.46-11.36-5.25-17-7.89,0-.17,0-.33,0-.49Q375.89,113,391.15,96.64c4.47-4.8,8.85-9.68,13.27-14.53l0,0,.59-.55A2.91,2.91,0,0,1,405.56,81.44Z" transform="translate(-167.17 -7.78)"></path><path class="cls-6" d="M404.42,82.11c-4.42,4.85-8.8,9.73-13.27,14.53Q375.91,113,360.6,129.3a7.27,7.27,0,0,1-3.22-1.06l-33.83-16.61c-2.33-1.14-4.7-2.2-7.05-3.3,0-.13,0-.26,0-.39Q358,95.48,399.59,83C401.16,82.57,402.67,81.71,404.42,82.11Z" transform="translate(-167.17 -7.78)"></path><path class="cls-9" d="M405,81.59l-.59.55C404.3,81.66,404.65,81.63,405,81.59Z" transform="translate(-167.17 -7.78)"></path><path class="cls-6" d="M316.5,108.33c2.35,1.1,4.72,2.16,7.05,3.3l33.83,16.61a7.27,7.27,0,0,0,3.22,1.06c0,.17,0,.33,0,.5-.46,9.89.54,19.74,1,29.6.1,2.19.05,4.38.14,6.57.25,6,.53,12.05.8,18.08l-.27.32c-11.74-1.23-23.47-2.48-35.21-3.67q-19.63-2-39.28-3.88c4.22-10.3,8.4-20.61,12.66-30.89q7.3-17.6,14.72-35.14C315.55,109.93,316.06,109.15,316.5,108.33Z" transform="translate(-167.17 -7.78)"></path><path class="cls-4" d="M501.68,81.58,491.27,56.49l19.34-18.86c6.59,6.6,12.59,13.72,18.62,20.81,1.77,2.07,4.55,3.42,5.1,6.46-5.23,4.4-10.49,8.78-15.7,13.21-1.39,1.18-3.12,1.06-4.7,1.38C509.87,80.3,505.77,80.9,501.68,81.58Z" transform="translate(-167.17 -7.78)"></path><path class="cls-10" d="M549.15,64.32c.3-.28.53-.31.63.17Z" transform="translate(-167.17 -7.78)"></path><path d="M449,59.94c2.45,2.35,4.39,4.33,5.65,6.88,1.59,3.19-.16,6.61-3.63,6.83-1.2.07-3.1-.81-2.45-1.92,1.56-2.65.53-5,.15-7.5A21.27,21.27,0,0,1,449,59.94Z" transform="translate(-167.17 -7.78)"></path></svg> 