<?xml version="1.0" encoding="UTF-8"?> <svg xmlns="http://www.w3.org/2000/svg" width="119" height="63" fill="none"><path d="M32.305 5.822h5.037v31.097h-5.037V5.822zm22.56 21.242c0 4.818-3.943 5.256-5.257 5.256-3.066 0-3.504-2.847-3.504-4.38V15.895h-5.038v11.826c0 2.847.877 5.475 2.629 7.008 1.533 1.533 3.504 2.19 5.913 2.19 1.752 0 3.943-.438 5.257-1.752v1.752h5.037V15.896h-5.037v11.168zM69.757 8.231h-5.038v7.665h-3.723v4.818h3.723v16.205h5.038V20.714h3.723v-4.818h-3.723V8.23zm19.492 22.337c-1.095.876-2.628 1.533-4.162 1.533-3.504 0-5.913-2.628-5.913-6.132 0-3.504 2.41-5.913 5.913-5.913 1.534 0 3.067.438 4.162 1.533l.657.657 3.504-3.285-.876-.656a11.23 11.23 0 00-7.447-2.848c-6.132 0-10.731 4.6-10.731 10.731 0 6.132 4.599 10.731 10.731 10.731a11.23 11.23 0 007.447-2.847l.876-.657-3.504-3.504-.657.657zm21.903-12.92c-1.534-1.533-3.067-2.19-5.476-2.19-1.752 0-3.504.438-4.818 1.751V5.822H95.82v31.097h5.038V25.312c0-4.818 3.285-5.256 4.599-5.256 3.066 0 2.847 2.847 2.847 4.38V36.7h5.038V24.655c0-2.847-.657-5.475-2.19-7.008zM25.296 29.255c-1.752 1.751-4.38 2.846-7.228 2.846-5.475 0-9.418-4.38-9.418-10.292 0-5.913 3.943-10.293 9.637-10.293 2.629 0 5.257 1.095 7.228 3.066l.657.657 3.285-3.285-.657-.657c-2.847-2.847-6.57-4.38-10.513-4.38-8.322-.22-14.455 6.35-14.455 14.892 0 8.54 6.133 15.11 14.236 15.11 3.943 0 7.885-1.533 10.513-4.38l.657-.657-3.285-3.285-.657.657z" fill="#F4F4F4"></path><path d="M26.488 51.439l-1.726 3.382-3.75.597 2.683 2.687-.591 3.75 3.384-1.721 3.384 1.721-.591-3.75 2.683-2.687-3.75-.597-1.726-3.382zm16.125 0l-1.726 3.382-3.75.597 2.683 2.687-.592 3.75 3.385-1.721 3.385 1.721-.592-3.75 2.683-2.687-3.75-.597-1.726-3.382zm16.121 0l-1.726 3.382-3.75.597 2.683 2.687-.591 3.75 3.384-1.721 3.385 1.721-.592-3.75 2.683-2.687-3.75-.597-1.726-3.382zm16.121 0l-1.726 3.382-3.75.597 2.683 2.687-.591 3.75 3.384-1.721 3.385 1.721-.592-3.75 2.684-2.687-3.75-.597-1.727-3.382zm16.125 0l-1.726 3.382-3.75.597 2.683 2.687-.591 3.75 3.384-1.721 3.385 1.721-.592-3.75 2.684-2.687-3.75-.597-1.727-3.382z" fill="#CDEA68"></path></svg> 