<?xml version="1.0" encoding="UTF-8"?> <svg xmlns="http://www.w3.org/2000/svg" width="109" height="76" viewBox="0 0 109 76" fill="none"><path fill-rule="evenodd" clip-rule="evenodd" d="M55.4912 17.3617C53.3808 19.942 47.3614 28.2723 46.6754 29.3509C45.3547 31.4176 45.238 32.4191 45.1991 33.0864C45.1608 33.7414 45.1608 34.9222 46.2352 35.8851C48.035 37.4768 50.5591 37.2197 52.7992 37.2197H71.2482C72.0379 37.2197 72.2713 36.9883 72.6985 36.4239C74.1742 34.1901 74.8349 31.7641 74.8349 29.5946C74.8349 24.9477 71.7927 19.0948 64.089 16.4502L63.2209 17.6825C69.3317 20.5573 71.857 24.3184 71.857 29.5812C71.8959 30.9934 71.5199 32.5208 70.5876 33.933H52.643C51.5686 33.933 51.4131 32.7264 51.8014 32.0457C53.3398 29.3312 55.0567 26.72 56.941 24.229C58.7538 21.8287 60.54 19.5821 62.4176 17.2332C62.9227 16.5788 62.5856 15.9495 61.5761 15.7444C59.4787 15.3079 57.2911 15 54.6367 15C39.917 15 34.5305 23.3817 34.5305 29.5946C34.5305 36.3339 39.9553 44.1512 54.6756 44.1512C62.8449 44.1512 68.1925 41.5446 71.2865 38.1949H68.166C65.4598 40.6723 60.8117 42.4316 54.6756 42.4316C42.2077 42.4316 37.6121 35.4866 37.6121 29.5046C37.7023 24.1647 42.635 16.7967 54.9868 16.5531C55.4529 16.5402 55.816 16.9638 55.4912 17.3617V17.3617ZM99.7695 55.8313C100.507 55.9341 101.077 56.5114 101.077 57.1927C101.077 57.9617 100.378 58.5781 99.5231 58.5781H83.7031V48.3219H79.0415V58.6044H70.4709C68.1536 58.6044 67.6751 57.205 67.6751 55.9213V48.2582H59.946C59.1816 48.7718 58.4438 49.3368 57.6541 49.8113L53.0708 52.6095L47.1156 48.2968H37.8455V50.8771H41.1982V49.4642L49.0828 55.0746L43.6969 58.4238H37.8449V61.0041H44.6157C45.3406 60.5168 46.0272 60.0032 46.778 59.5539L51.4903 56.7171L57.4714 60.9533H64.2823L55.2832 54.2397L59.9059 51.2498C60.8901 50.6071 61.9261 50.069 62.9357 49.4788V56.2304C62.9357 59.08 63.6735 61.0567 69.4607 61.0567L102.152 60.9801C104.676 61.0175 106.294 59.2857 106.294 57.1939C106.294 55.1132 104.429 53.4065 102.152 53.4065H90.3443C90.4999 51.982 91.7416 50.7888 92.9975 50.7888H104.947L104.91 48.3114H92.2343C88.2204 48.3114 85.0103 51.6103 84.9195 55.4486C84.9071 55.718 85.0875 55.8845 85.3857 55.8845L99.7695 55.8313V55.8313ZM37.8455 55.7933V53.1617H40.1497V55.7933H37.8455ZM37.8455 48.2968H29.0933C26.7242 48.2968 24.8984 48.9132 23.5524 49.965C21.1314 51.8651 20.3547 53.8669 20.3806 54.7661H23.5394C22.1539 55.7933 21.2216 57.0244 20.7301 58.4501H10.372C8.50794 58.4501 7.30335 57.1413 7.30335 55.8699V48.2068H2.7207V56.1655C2.7207 59.0274 5.46581 61.0041 9.86694 61.0041H37.8455V58.4238H26.7371C26.789 57.115 28.1999 55.7933 29.4817 55.7933H37.8455V53.1617H26.6075C26.4525 52.3915 27.9023 50.8771 29.0155 50.8771H37.8455V48.2968V48.2968Z" fill="black"></path></svg> 