<?xml version="1.0" encoding="UTF-8"?> <svg xmlns="http://www.w3.org/2000/svg" width="109" height="76" viewBox="0 0 109 76" fill="none"><path fill-rule="evenodd" clip-rule="evenodd" d="M42.3846 9.63231C42.8514 9.63231 43.2144 9.27548 43.2144 8.8167C43.2144 8.35793 42.8514 8.0011 42.3846 8.0011C41.9178 8.0011 41.5547 8.35793 41.5547 8.8167C41.5547 9.27548 41.9178 9.63231 42.3846 9.63231Z" fill="black"></path><path fill-rule="evenodd" clip-rule="evenodd" d="M31.1265 8.15399C31.5415 8.15399 31.8527 7.84814 31.8527 7.44034C31.8527 7.03254 31.5415 6.72668 31.1265 6.72668C30.7635 6.72668 30.4004 7.03254 30.4004 7.44034C30.4523 7.84814 30.7635 8.15399 31.1265 8.15399Z" fill="black"></path><path fill-rule="evenodd" clip-rule="evenodd" d="M22.7263 25.0779L22.3633 24.7211C23.3487 23.8545 24.3342 22.4272 24.4898 21.6116C24.6454 20.8469 25.7346 20.9489 25.5271 21.8155C25.2678 22.8859 23.9711 24.1603 22.7263 25.0779Z" fill="black"></path><path fill-rule="evenodd" clip-rule="evenodd" d="M15.5684 8.45987C13.8049 9.2245 13.5456 11.0086 14.7904 12.0281C16.2945 13.3025 18.7323 12.1811 18.4729 10.244C20.4957 10.346 21.7405 8.30694 21.4293 6.87964C22.3111 6.11501 22.4148 4.53477 21.3256 3.92307C20.1845 3.26039 19.0953 3.51526 18.4211 4.78965C16.6576 4.6877 14.8941 6.06403 15.5684 8.45987L14.7385 8.10304C13.5975 5.80915 15.5684 3.46429 17.9543 4.02502C18.4211 2.90356 20.2364 1.68015 22.1555 2.85259C23.7114 3.77014 24.0226 6.11501 22.3629 7.28744C23.1409 9.47938 21.5849 11.3145 19.2509 11.1106C18.9916 13.9652 16.2427 14.322 14.4792 12.9457C13.4937 12.1811 13.0788 11.1106 12.8713 10.346C12.6639 9.53035 12.6639 8.76572 11.834 7.89914C11.2116 7.23646 10.0706 7.28744 10.0706 7.28744C10.0706 5.24843 8.09962 3.31136 5.6619 4.22892C4.83203 3.41331 3.7947 3.36234 3.0167 4.27989C2.60177 4.78965 2.34244 6.16598 3.69097 6.82866C3.6391 8.71475 5.09137 9.88718 7.21789 9.73425C7.32163 10.7538 8.41082 11.6713 9.44815 11.7733V12.283C8.35896 12.1811 7.78842 12.5379 7.11416 13.4045C4.62457 13.3025 2.8611 14.373 2.91297 16.1571C1.14951 16.463 0.838311 18.2981 1.82377 19.2666C2.80924 20.2352 4.31337 19.8274 4.78017 18.7059C6.54363 19.0627 8.15149 17.7884 8.20336 16.361C9.86308 16.361 10.5892 15.6984 10.8485 14.2201L11.4709 14.2711C11.6784 15.9023 10.9004 17.4315 8.92949 17.2276C8.87762 19.1647 6.95856 20.2352 5.1951 19.5725C4.36523 21.1018 2.44617 21.7135 0.890177 20.2352C-0.665818 18.8079 -0.0952868 16.3101 1.92751 15.7493C1.97937 13.8633 3.37977 12.0791 6.18056 12.7418C6.18056 12.7418 6.54363 11.8752 7.37349 11.8242C6.80296 11.5694 6.33616 11.2635 6.23243 10.7028C4.15777 11.1616 2.39431 9.2245 2.8611 7.33841C0.942044 6.36988 0.890177 4.53477 1.82377 3.41331C2.80924 2.29186 4.4171 2.03698 5.86936 3.26039C8.30709 1.93503 11.1079 3.56624 10.9004 6.31891C12.612 6.21696 13.6493 7.69524 13.4419 9.2245C13.7531 8.56182 14.0643 8.25597 14.6867 8.10304L15.5684 8.45987Z" fill="black"></path><path fill-rule="evenodd" clip-rule="evenodd" d="M19.8227 5.14661L20.2376 5.45246C19.4078 7.13464 18.0074 8.86781 16.8145 9.88731L16.3477 9.53049C17.1775 8.15415 19.0447 5.86026 19.8227 5.14661Z" fill="black"></path><path fill-rule="evenodd" clip-rule="evenodd" d="M7.78778 14.322L8.04711 14.7298C7.00978 15.7493 5.14258 17.1257 4.15712 17.5844L3.74219 17.1766C4.77952 16.1571 6.59485 14.8318 7.78778 14.322Z" fill="black"></path><path fill-rule="evenodd" clip-rule="evenodd" d="M10.2264 9.37752L9.75956 9.98923C8.41104 9.12265 5.81771 6.82876 5.19531 6.01315L5.61024 5.60535C6.85504 6.16608 9.34463 8.35802 10.2264 9.37752Z" fill="black"></path><path fill-rule="evenodd" clip-rule="evenodd" d="M7.7893 31.2459C7.9449 32.0105 7.84116 32.8261 8.51543 33.6417C8.77476 33.9475 10.0714 35.6297 11.0569 36.5473C9.76022 37.057 7.11503 38.1275 5.24784 38.3314C4.88477 38.3824 4.46984 38.6373 4.10677 38.8412C3.84744 39.249 3.63997 39.9626 3.53624 40.7273C3.48437 41.288 3.48438 41.9507 3.48438 42.6133C3.48438 43.1741 3.79557 45.0092 4.46984 46.1816C5.09224 47.405 5.7665 47.9148 6.49263 48.2716C6.64823 48.2206 6.95943 48.1697 7.52996 48.1187C8.98223 48.0677 10.0714 48.8833 10.5382 49.546C10.7457 49.8009 11.1088 49.8518 11.5756 49.8518C12.7166 49.8518 14.0133 49.495 15.2062 49.0362C15.4655 48.8323 16.1917 48.3736 16.9178 47.8128C17.6439 47.2521 21.5858 43.9387 23.3492 43.1231C24.2828 43.6329 25.787 44.2446 27.343 44.2446C27.4467 44.2446 27.7579 44.2446 28.0691 44.1936C28.5878 44.0916 29.2102 43.8877 29.9882 43.7348C31.3886 43.4799 33.0483 43.2251 33.5151 43.2251C34.8117 43.2251 38.598 43.327 39.5316 43.327C40.4652 43.327 41.8137 43.2251 42.3324 43.1741C43.1104 42.9192 44.9257 42.4604 46.5854 41.6448C48.297 40.9312 51.8758 38.4843 52.4464 37.9236C52.7057 37.6687 52.965 37.4139 53.1725 37.159C53.2244 37.057 53.2762 37.0061 53.2762 36.9551C53.2762 36.9041 53.2762 34.5083 53.2762 34.5083C53.2762 34.5083 54.1061 33.5907 54.4692 33.2339C54.521 33.1829 54.521 33.1829 54.521 33.1319C54.3654 32.6732 54.2098 31.1439 54.3136 29.6656L53.4318 29.2578C53.38 31.1439 52.7057 32.7241 52.0314 33.7436C50.7348 33.9475 48.297 34.7122 47.4153 35.6807L47.8821 35.8336C48.712 35.3749 49.5937 35.069 50.631 35.069C51.5128 35.069 51.9277 35.2729 51.9277 35.5278C51.9277 35.6807 51.7721 36.1395 51.7202 36.2414C51.6684 36.3944 51.6165 36.5983 51.4609 36.7512C50.268 38.0256 48.8676 39.147 47.2078 40.0646C46.0668 40.6763 45.0294 41.0841 43.3697 41.5429C42.8511 41.6958 42.1768 41.8997 41.7619 42.0526C41.1395 42.0526 37.8719 41.9507 35.9528 41.9507C34.0338 41.9507 30.0919 42.2055 28.8471 42.5114C28.2766 42.6643 28.121 42.8682 27.4986 42.8682C26.2538 42.8682 24.6459 42.2565 23.6604 41.7977C23.5048 41.8487 23.1418 42.0016 22.7787 42.1546C22.0526 42.5114 20.4966 44.6524 19.563 43.9897C19.0962 44.9072 17.0734 45.8248 16.3991 46.7933C16.5029 46.2836 17.2809 42.9702 17.3846 42.3075C17.3846 42.2055 17.3846 42.1036 17.3327 41.9507C16.6066 40.7273 14.5319 39.9626 13.3909 39.7587C13.0278 39.7078 12.8722 39.6568 12.6647 39.6058L10.8494 39.0451L9.13783 39.6058L11.1088 39.9626L8.35983 41.5938C8.77476 41.4409 11.4718 40.7273 11.6793 40.6253C11.8868 40.5743 12.198 40.5234 12.5091 40.6253C12.8722 40.7273 13.9095 40.9821 14.5319 41.186C14.895 41.288 15.4655 41.9507 15.6211 42.3075C15.673 42.4604 15.7249 42.7663 15.7249 43.429C15.7767 43.8368 15.673 44.4485 15.5174 44.9072C15.2581 46.1306 14.6875 47.0482 14.5319 47.3541C14.2726 47.8128 13.9614 47.9658 13.6502 48.1187C13.1315 48.3736 12.4573 48.5265 11.7312 48.5265C11.2125 48.5265 10.9013 48.5265 10.6938 48.2206C10.0196 47.3031 8.35983 46.4365 6.64823 46.7933C5.6109 46.1816 4.57357 44.1426 4.57357 42.5624C4.57357 41.5938 5.04037 40.1156 5.2997 39.3509C7.0113 39.147 10.4345 37.8217 12.0942 37.108C12.4573 37.108 13.3909 36.7512 14.3245 36.7512C16.5547 36.7512 18.785 38.6883 20.1335 39.9626C20.341 39.6058 20.7559 39.0451 21.897 39.0451C23.453 39.0451 24.3866 40.4724 24.8534 41.8997L25.6832 41.288C25.5276 40.4724 25.1127 39.5548 24.4384 38.8921C23.8679 38.3314 22.8306 37.9236 22.0526 37.9236C21.5339 37.9236 21.0671 38.0256 20.7559 38.0256C19.6149 38.0256 19.1481 37.5158 18.3182 36.9551C17.4365 36.3434 15.7249 35.4768 14.5319 35.4768C13.7539 35.4768 13.3909 35.7827 12.7685 35.7827C11.8349 35.7827 11.4718 35.4258 11.0569 34.8651C10.8494 34.6102 9.91582 33.7946 9.65649 33.4888C9.50089 33.2849 9.24156 32.5202 9.13783 32.1124L7.7893 31.2459Z" fill="black"></path><path fill-rule="evenodd" clip-rule="evenodd" d="M9.0334 32.1634C9.29274 32.4693 9.55207 32.7751 9.91514 33.03C10.2263 33.2849 10.6413 33.4888 11.0562 33.6927C11.6267 33.9985 12.2491 34.3554 12.8715 34.5593C13.3902 34.7122 14.1163 34.7632 14.7906 34.7632C15.7242 34.7632 16.8134 34.5593 17.747 35.018C18.3694 35.3239 18.4212 35.9356 18.888 36.1395C19.666 36.4454 21.7407 36.4963 22.9336 36.4963C25.2676 36.4963 27.7572 36.1905 29.2613 35.8846L28.5352 35.12C27.4979 35.2729 24.4896 35.6298 23.0892 35.6298C21.1183 35.6298 19.303 35.3239 19.303 34.5083C19.303 33.9476 19.8735 33.1829 21.0664 33.1829C22.3112 33.1829 24.1266 33.8966 24.4896 33.9985C24.8008 34.1005 24.9564 34.0495 25.1639 33.9476L25.89 33.5907C24.9564 33.132 21.637 32.0105 20.444 32.0105C19.9254 32.0105 19.6142 32.1125 19.2511 32.5203C18.7843 33.081 17.5914 33.5907 15.7242 33.5907C14.6869 33.5907 13.1827 33.3868 12.8715 33.2849C12.301 33.03 11.2118 32.4183 10.4857 31.9086C9.55207 31.2459 8.77407 30.5322 8.20354 29.6656C8.04794 29.4108 7.94421 29.1049 7.94421 28.85C7.94421 28.6461 7.99607 28.4422 8.04794 28.2893C8.20354 28.4932 8.41101 28.6971 8.61847 28.901C9.60394 29.8695 11.1081 30.5832 12.6122 30.8381C13.0271 30.94 13.4421 30.991 13.857 30.991C14.4794 30.991 15.1018 30.6342 15.4649 30.3283L14.8943 29.6656C14.6869 29.7166 14.3238 29.7166 14.0126 29.7166C11.8342 29.7166 9.0334 28.2893 8.35914 26.6581C8.30727 26.5052 8.20354 26.4032 8.30727 26.2503C8.35914 26.0974 8.46287 25.7915 8.51474 25.4857C8.67034 25.6386 8.92967 25.8425 9.24087 26.0464C10.0707 26.5561 11.6267 27.2698 11.9379 27.4737C12.7159 27.2698 13.3383 27.0149 13.8051 26.76C14.2719 26.5052 14.8943 26.3013 15.6205 26.3013C17.2283 26.3013 19.0436 27.2188 20.8071 28.0344L22 27.5756C20.444 26.5052 17.1246 25.0269 15.2574 25.0269C14.1682 25.0269 13.1309 25.7915 12.4047 25.7915C11.523 25.7915 8.92967 24.5681 8.92967 23.4976C8.92967 22.682 10.5894 22.2742 13.2865 21.9174C12.8197 22.5801 12.4047 23.2937 11.9379 24.0074L12.6122 24.3642C16.8134 18.4001 21.1702 14.475 24.8527 12.1301C26.2012 11.2635 26.5124 10.7538 26.9792 9.83623C28.1203 7.54234 29.2095 5.7582 31.0767 5.7582C31.9584 5.7582 32.6845 6.26796 33.1513 6.82869L34.4999 7.23649L33.1513 8.15404L34.5517 8.71477C32.7364 9.22453 30.1949 10.9577 29.2095 13.5574C27.2386 13.6594 26.305 15.1886 25.6826 16.514C25.2676 17.3806 24.5934 17.7374 23.556 18.4001L15.5686 23.8544L16.6578 24.0074L24.0228 19.1647C25.4751 18.1962 26.2012 17.4825 26.5124 16.8199C27.1867 15.4945 27.9128 14.475 29.3651 14.475C30.0912 14.475 30.8173 14.7808 31.4397 15.3416L32.7364 15.7494L31.336 16.616L32.5289 17.3296C29.1576 18.3491 27.0311 20.745 25.8382 25.3327L26.7199 25.5366C27.1867 24.0074 27.6016 22.631 28.4315 21.4076C30.4024 21.4076 32.3733 21.3057 34.3443 21.3057C39.5309 21.3057 43.8358 21.5096 46.1698 22.1723L45.34 20.7959C42.8504 20.3881 39.2197 20.1332 34.2924 20.1332C32.6327 20.1332 30.9729 20.1842 29.3132 20.2352C30.3505 19.1137 31.9065 18.1962 34.2924 17.4825L32.5808 16.565L34.448 15.5455L31.9065 14.6279C31.4397 14.2201 30.9211 13.8633 30.1949 13.7104C31.0248 11.2635 33.7737 9.78526 36.4708 8.81672L34.6036 8.05209L36.4708 7.03259L33.67 6.06406C32.892 5.19748 32.1659 4.78967 31.0767 4.78967C28.3796 4.78967 27.2386 7.08356 26.2012 9.12258C25.6307 10.1931 25.2676 10.6518 24.334 11.2635C22.2594 12.5889 19.6142 14.6279 17.1246 17.2277C15.8279 16.3101 13.1309 13.6084 12.4047 12.0791C12.1454 12.436 11.8342 13.2006 11.8342 13.2006C12.0935 13.5065 15.2574 16.616 16.4503 17.9413C16.3466 18.0433 16.2428 18.1452 16.191 18.2472C14.9462 18.502 11.6786 18.8079 10.5894 18.655L9.967 19.7254C10.7969 19.6235 14.0126 19.2667 15.3611 19.2157C14.8943 19.6745 14.4794 20.1842 14.1163 20.694C9.967 21.1528 7.16621 22.0193 7.16621 23.4976C7.16621 23.7525 7.26994 24.0074 7.26994 24.3132C7.26994 24.9249 7.01061 25.1798 6.59568 25.4347C6.28448 25.6386 6.28448 25.7405 6.38821 25.9444C6.49195 26.1483 7.16621 27.0659 7.16621 27.2188C7.16621 27.5247 6.85501 27.8305 6.59568 28.0854C6.38821 28.3403 6.38821 28.3913 6.54381 28.6971L7.73674 31.1949L9.0334 32.1634Z" fill="black"></path><path fill-rule="evenodd" clip-rule="evenodd" d="M60.5868 18.0942C60.3275 18.3491 60.0682 18.6549 59.8607 18.9608L59.1864 18.0432C61.4167 15.0867 67.3295 13.7103 70.8045 13.5064V11.9262C70.3377 12.0791 69.8709 12.2321 69.456 12.334C68.8336 12.4869 68.2631 12.6399 67.7963 12.5889C67.3295 12.5889 66.9145 12.385 66.7589 12.1301C66.2921 11.4674 66.7071 10.4989 68.2631 9.58134L67.0701 8.61281C66.1365 9.78524 65.2548 11.1106 64.3212 11.8752C63.4913 12.5889 62.6096 12.9457 61.8835 12.436C61.5204 12.1301 61.3648 12.0282 61.313 11.2635C61.3648 10.193 62.0391 8.51086 62.6096 7.44038L61.2092 7.28745C60.9499 8.91866 60.2756 10.295 59.5495 11.4674C58.6678 12.8947 57.4748 13.9142 56.2819 14.7298L55.5039 13.9652C56.4894 13.4045 57.6823 12.4869 58.5122 11.2126C59.4976 9.73427 60.2756 7.95013 60.2756 6.26794L64.3731 6.67575C63.8025 7.3894 62.8171 9.02061 62.454 10.244C62.2466 10.8557 62.2984 11.3655 62.5059 11.5184C62.9208 11.8243 63.6988 11.3145 64.4249 10.5499C65.4623 9.42841 66.4996 7.7972 66.9664 7.1855L69.9228 9.63232C68.5743 10.346 67.3295 11.1106 67.5888 11.5694C67.8481 11.9772 68.678 11.8752 69.6116 11.5694C70.3896 11.3655 71.1676 11.0086 71.79 10.6518V14.6279C70.3377 14.5769 67.9 14.8828 65.6179 15.5455C66.1884 16.3101 67.7444 16.6159 68.7817 16.7179L68.2631 19.9293C65.6179 18.8079 63.6469 18.1452 60.5868 18.0942L61.6242 17.2276C63.9063 17.2786 66.1884 17.9413 67.4851 18.553L67.6925 17.3296C66.4996 17.1767 65.0473 16.514 64.4249 15.8003C63.3876 16.1572 62.454 16.6159 61.6242 17.2276L60.5868 18.0942Z" fill="black"></path><path fill-rule="evenodd" clip-rule="evenodd" d="M48.2965 28.2892L49.2301 26.2501C48.2446 25.0777 47.1036 23.5994 46.17 22.1211L45.3401 20.7448C43.421 17.1765 44.1472 15.4943 43.1098 13.9141C42.28 12.6397 38.1825 13.4553 37.5083 13.5573L38.7012 11.6202L36.3672 11.8241L38.3381 9.53024C38.5456 9.22438 38.6493 8.96951 38.8568 8.1539C39.2717 6.93049 40.309 4.89148 43.421 4.89148C46.8442 4.89148 47.9334 7.64415 49.4376 8.81658C51.1491 10.1419 53.3794 12.079 55.4022 13.9651L56.1802 14.7297C57.2175 15.7492 58.2549 16.8197 59.1885 18.0941L59.8627 19.0116C64.012 24.9758 69.1468 36.3433 71.4808 41.5937C71.6883 42.1035 71.8439 42.6132 71.9995 43.021C70.4435 42.1545 68.7319 41.1349 66.9684 39.9625L65.9311 39.2489C65.3087 38.7901 64.6863 38.3313 64.012 37.8725L62.9747 37.0569C62.3523 36.5472 61.7299 36.0374 61.1075 35.5277L63.1822 47.4049C63.3378 48.1186 63.9602 47.9656 64.427 47.3539C64.8938 46.7422 65.1012 46.5893 64.8938 45.7737L62.9747 37.0569L64.012 37.8725L65.8792 45.2639C66.0348 45.9266 66.346 46.1305 67.124 46.1815C67.902 46.2325 68.1095 45.9266 67.902 45.4169L65.8792 39.2489L66.9166 39.9625L68.8356 45.5188C69.3024 46.9461 68.8356 47.0991 67.9539 47.0991C67.0722 47.0991 66.2942 46.8952 65.8274 47.201C65.3606 47.5069 64.79 48.3225 64.0639 49.0361C63.4415 49.6478 62.5079 49.4949 62.3523 48.3225L60.0702 34.6611C58.5661 33.3357 57.1657 31.9594 55.869 30.5321C55.2985 30.2772 54.6761 30.0223 54.1055 29.7674L53.2238 29.3596C52.9126 29.2067 52.7051 29.1048 52.6014 29.1048C51.979 29.8694 51.3566 30.685 50.6305 31.2967C50.2674 31.6026 50.0081 31.8065 49.4376 31.8065C49.282 31.8065 49.0745 31.8065 48.867 31.7045C48.6596 31.6026 48.4521 31.3477 48.2446 31.0418C48.089 30.7869 47.8297 30.4811 47.6222 30.1243C47.1554 29.3596 46.6886 28.4421 46.2218 27.6775C45.7032 26.8109 45.2882 26.1992 45.2364 26.0972C45.1326 25.9443 44.9252 25.7404 44.9252 25.7404C44.6658 26.1482 44.5102 26.8618 44.5102 27.2697L43.6804 26.8109C43.7841 26.2501 44.0434 25.5365 44.1472 25.1797C44.1472 24.8738 43.7841 24.466 43.5248 24.466C43.1098 24.466 42.7468 24.8738 42.5393 25.6894L41.6576 26.0462C41.7613 24.7209 42.2281 23.2936 43.5248 23.2936C44.614 23.2936 45.2364 24.1092 45.755 24.8738C46.2737 25.6384 47.9334 27.8814 48.2965 28.2892L48.9708 29.1048C49.0745 29.6145 49.3338 29.9204 49.3857 30.0733C49.5932 30.4301 49.8525 30.3791 50.2156 30.0733C50.3712 29.9204 50.8898 29.5126 51.3566 29.0538C51.7715 28.595 52.1865 28.0853 52.3421 27.8304C52.8089 28.0343 53.7425 28.4931 54.4686 28.7989C51.3566 25.0267 48.3484 20.439 47.1036 17.3295C46.5849 16.0551 47.6222 15.5963 48.1409 16.8707C49.4894 20.286 53.535 26.4031 56.4914 29.6145C59.9146 33.2847 66.1386 38.6372 70.1842 40.7781C69.6136 39.6567 68.8356 38.0254 67.902 36.1394C62.9747 33.3867 57.9955 28.3401 55.6097 24.0072L56.647 24.1092C58.8254 27.8814 63.9602 32.8769 67.0203 34.3552C64.2195 28.544 60.5889 21.1526 57.7362 17.9412C54.2611 14.067 50.423 11.0085 48.5558 9.42828C46.7405 7.84805 46.0144 5.91099 43.3692 5.91099C41.2426 5.91099 40.1016 7.44025 39.6866 8.96951C39.5829 9.27536 39.531 9.47926 39.3236 9.78511L38.2863 11.0085L40.4646 10.7536L39.168 12.4868C39.168 12.4868 42.5912 11.7222 43.836 13.3534C45.1326 15.0865 44.3028 17.0236 46.4293 20.8468C47.3629 22.5289 49.645 25.4855 50.3711 26.1482L48.867 29.2067L48.2965 28.2892Z" fill="black"></path><path fill-rule="evenodd" clip-rule="evenodd" d="M14.4796 28.7992L13.9609 28.4423C14.2721 28.1874 14.8427 27.8306 15.4132 27.5757C15.7244 27.4738 16.0356 27.3718 16.2949 27.3718C16.8655 27.3718 17.3841 27.6267 17.8509 27.8816C18.6289 28.2894 19.5107 28.7482 20.1849 28.7482C20.4443 28.7482 20.7036 28.6972 20.9629 28.6972C21.6372 28.6972 22.2596 29.0031 22.6226 29.0031C22.8301 29.0031 22.9857 28.7992 23.1413 28.5952C23.5044 28.0855 24.023 27.6777 24.6454 27.4228C25.3197 27.117 26.1496 27.015 27.0832 27.015C27.8093 27.015 28.4836 27.117 28.8466 27.1679C28.8466 27.1679 28.328 27.8306 28.1724 27.9326C27.4462 27.9326 26.0977 27.8816 25.216 28.2384C24.6973 28.4423 24.4898 28.7482 24.4898 29.207C24.4898 29.8187 25.216 30.0735 25.994 30.3284C26.4608 30.4813 26.9794 30.4813 27.4462 30.4813C28.0168 30.4813 29.0541 30.2774 30.0914 30.0226C31.3362 29.7677 32.5292 29.4109 32.8922 29.3089L33.359 30.1245C31.9586 30.5833 30.5064 31.0421 29.1578 31.2969C28.4317 31.4499 27.7056 31.5518 27.0313 31.5518C25.9421 31.5518 24.801 31.093 23.8156 30.6852C22.9857 30.3284 22.3114 29.9206 21.6372 29.9206C20.9111 29.9206 20.2368 30.1755 19.5625 30.5323C19.2513 30.7362 18.2659 31.3989 17.3841 31.7047C16.7099 31.9596 16.1393 32.1125 15.4651 32.1125C14.8427 32.1125 14.4796 32.0106 14.1684 31.7557L15.2057 31.144C15.3613 31.2969 15.5688 31.2969 15.7244 31.2969C15.88 31.2969 16.0356 31.2969 16.4505 31.093C16.7099 30.9911 17.0211 30.7872 17.2285 30.6343C17.6435 30.3794 17.7991 30.2265 17.9547 30.0735C18.2659 29.8187 18.3696 29.5128 18.0065 29.105C17.7991 28.9521 17.5916 28.7482 17.3323 28.5952C16.9692 28.3913 16.7099 28.1874 16.0356 28.1874C15.3095 28.4423 14.7908 28.6462 14.4796 28.7992Z" fill="black"></path><path fill-rule="evenodd" clip-rule="evenodd" d="M29.2635 29.2579C29.2635 29.2579 28.6411 29.105 28.4336 29.054C28.8485 28.4933 29.4191 27.9835 29.834 27.7286C30.7157 27.1679 31.5975 26.8621 32.946 26.7601C33.309 26.7601 34.087 26.6582 34.502 26.6582C34.865 26.6582 35.5393 26.7091 36.1098 26.8111C36.5248 26.913 36.9397 27.015 37.2509 27.066C37.4584 27.1169 38.1326 27.066 38.392 27.066C39.3774 26.913 40.5185 26.5562 41.1409 26.2504L41.4002 27.1679C40.1036 27.8306 38.5994 28.4423 37.2509 28.4423C36.5766 28.4423 35.8505 28.3913 35.1762 28.3404C33.9833 28.2384 32.946 28.0855 32.5829 28.0855C31.5975 28.0345 30.1971 28.4423 29.2635 29.2579Z" fill="black"></path><path fill-rule="evenodd" clip-rule="evenodd" d="M28.276 34.3043L27.0312 33.7435C28.7428 32.877 31.3362 32.0614 32.3735 31.8575C33.4108 31.7045 34.6556 31.5516 35.3818 31.3477C35.693 32.1633 36.3154 32.9789 37.249 32.9789C37.612 32.9789 38.1307 32.724 38.7012 32.4692C39.3236 32.2143 39.946 31.9084 40.2572 31.7555C40.6203 31.6026 41.7613 31.1438 42.6949 30.685C43.058 30.5321 44.0435 30.0733 44.0953 30.0223L44.7696 30.3792C44.5621 31.1948 44.2509 32.2143 43.8879 32.9789C43.7323 33.2848 43.6285 33.4887 43.4729 33.6926C43.2136 33.9984 42.7468 34.4062 42.1763 34.814C41.502 35.2728 40.724 35.7316 39.8941 36.1904C39.2199 36.5472 38.5975 36.904 37.9232 37.2099L37.5602 36.5982C38.5975 36.0374 39.6348 35.3238 40.5165 34.6611C40.9315 34.3552 41.3983 34.0494 41.6576 33.7435C41.8651 33.5396 42.0207 33.3867 42.1244 33.2338C42.3837 32.826 42.8505 32.0614 42.9543 31.7045C42.5912 31.9084 41.1389 32.5711 40.4647 32.877C39.7385 33.2338 38.5975 33.8455 37.9232 34.1513C37.4046 34.4062 36.9378 34.5082 36.6266 34.5082C35.9004 34.5082 35.5374 33.9984 35.3818 33.6926C34.915 32.877 34.4482 32.775 33.0996 32.775C31.5955 32.826 29.5208 33.4377 28.276 34.3043Z" fill="black"></path><path fill-rule="evenodd" clip-rule="evenodd" d="M35.4351 30.5322C35.4351 30.5322 35.2795 29.8186 35.1758 29.5637C35.1758 29.5637 35.3832 29.5127 35.6426 29.5127C36.1094 29.5127 37.2504 29.6657 37.7172 29.6657C39.4807 29.6657 40.155 29.1049 40.6736 28.6461C41.0886 28.2383 41.5554 27.9325 42.7483 27.9325C43.7856 27.9325 45.0304 28.3403 45.3416 28.4932L45.2897 29.4618C44.7711 29.2069 44.045 29.003 43.4226 29.003C43.0076 29.003 42.5927 29.054 42.3334 29.1559C42.0222 29.3088 41.8147 29.5637 41.5554 29.7676C41.2442 30.0225 40.8292 30.2774 40.2587 30.4813C39.6882 30.6852 39.0139 30.8381 37.9766 30.8381C36.5762 30.8381 35.85 30.5832 35.4351 30.5322Z" fill="black"></path><path fill-rule="evenodd" clip-rule="evenodd" d="M24.2812 37.7197L25.1111 37.3629C25.8372 37.6688 26.9264 37.9746 27.7044 37.9746C28.1712 37.9746 28.5343 37.8217 28.8455 37.6688C29.1048 37.5668 31.8019 36.2415 33.1504 35.7827C33.5654 35.6298 34.0322 35.5278 34.2396 35.5278C34.5508 35.5278 34.6027 35.6807 34.6546 35.8337C34.9139 36.2415 36.8848 39.0451 37.0923 39.249C38.8039 38.7393 40.5155 37.9746 41.5528 37.0571C42.5901 36.0885 43.4719 34.9161 44.3017 34.0495C44.6129 33.6927 45.0279 33.3868 45.2353 33.2849C46.1171 32.8261 48.8141 32.7751 49.9552 32.8261L49.2809 33.7437C47.2581 33.7437 46.1689 33.9476 45.6503 34.3044C45.4428 34.4573 45.1316 34.7632 44.8204 35.171C44.0424 36.0885 43.2644 37.261 43.0051 37.5158C43.5756 37.9236 44.2499 38.2805 45.2353 38.2805C46.9469 38.2805 48.1398 37.261 48.8141 36.6493L49.3846 37.0061C48.9697 37.5158 48.5029 38.0766 47.8805 38.4844C47.2062 38.9432 46.3245 39.249 45.8577 39.351C44.8723 39.1471 42.7457 38.7392 42.2271 38.6373C40.3599 39.4019 37.2997 40.5744 36.2624 40.8802C36.1068 40.9312 35.8993 40.9822 35.5881 40.9822C34.7583 41.0331 33.6691 41.0331 32.6318 40.9822C31.9056 40.9822 31.2314 40.9822 30.8683 40.9312L29.9866 40.0136C30.7646 40.1666 31.0758 40.2175 31.8538 40.2175C33.6172 40.2175 34.7583 39.9117 35.1214 39.8607C35.4326 39.8097 35.4844 39.6058 35.3807 39.351C35.2251 38.8922 34.9658 38.4844 34.6027 38.0256C34.3952 37.7707 33.9284 37.3629 33.721 37.21C33.4616 37.0571 33.2542 37.0061 32.5799 37.21C31.9575 37.4139 30.0384 38.4334 29.2086 38.8412C28.7936 39.0451 28.4824 39.0961 27.7563 38.9432C26.8746 38.7902 25.0074 38.1275 24.2812 37.7197Z" fill="black"></path><path fill-rule="evenodd" clip-rule="evenodd" d="M29.5707 16.8197C29.9338 16.8197 30.245 16.5139 30.245 16.1571C30.245 15.8002 29.9338 15.4944 29.5707 15.4944C29.2077 15.4944 28.8965 15.8002 28.8965 16.1571C28.8965 16.5649 29.2077 16.8197 29.5707 16.8197Z" fill="black"></path><path fill-rule="evenodd" clip-rule="evenodd" d="M56.2331 56.3767C56.2331 55.816 55.7663 55.3572 55.1958 55.3572H53.6916C53.1211 55.3572 52.6543 55.816 52.6543 56.3767V71.8222C52.6543 72.3829 53.1211 72.7907 53.6916 72.7907H55.1958C55.7663 72.7907 56.2331 72.332 56.2331 71.7712V56.3767Z" fill="black"></path><path fill-rule="evenodd" clip-rule="evenodd" d="M58.1523 56.7845V57.4982C58.1523 57.804 58.4117 58.0589 58.7229 58.0589H69.0443C69.5111 58.0589 69.8742 57.7021 69.8742 57.2433V56.0199C69.8742 55.5611 69.5111 55.1533 68.9925 55.2043C68.9925 55.2043 58.9822 56.1728 58.671 56.2238C58.3598 56.1728 58.1523 56.4787 58.1523 56.7845Z" fill="black"></path><path fill-rule="evenodd" clip-rule="evenodd" d="M49.7472 72.7907C47.1539 72.7907 45.546 70.8537 45.546 68.7127V62.5447H44.8199C44.405 62.5447 44.0938 62.2388 44.0938 61.831V60.8115C44.0938 60.4037 44.405 60.0979 44.8199 60.0979H45.546V56.3257C45.546 55.765 46.0128 55.3572 46.5315 55.3572H47.9837C48.5543 55.3572 48.9692 55.816 48.9692 56.3257V60.0979H51.2513C51.6663 60.0979 51.9775 60.4037 51.9775 60.8115V61.831C51.9775 62.2388 51.6663 62.5447 51.2513 62.5447H48.9692V68.2539C48.9692 69.3754 49.6435 70.14 50.8883 70.14H51.0957C51.5107 70.14 51.8737 70.4969 51.8737 70.9047V72.0261C51.8737 72.4339 51.5107 72.7907 51.0957 72.7907H49.7472V72.7907Z" fill="black"></path><path fill-rule="evenodd" clip-rule="evenodd" d="M32.1131 66.2658C32.1131 63.0033 30.1422 59.6899 25.6298 59.6899C21.4805 59.6899 19.1465 62.9014 19.1465 66.2658C19.1465 69.885 21.6361 73.0455 25.6817 73.0455C28.4306 73.0455 31.1276 71.6182 31.6463 69.2733C31.6982 68.9674 31.4907 68.5596 31.0239 68.5596H29.053C28.6899 68.5596 28.3787 68.7126 28.2231 68.9674C27.6526 69.7831 26.8227 70.1909 25.6298 70.1909C23.9182 70.1909 22.7253 68.8655 22.6215 67.3872H30.972C31.8019 67.3872 32.1131 66.9794 32.1131 66.2658ZM22.6734 64.8894C22.829 63.4111 24.1257 62.3407 25.6298 62.3407C27.1858 62.3407 28.4825 63.4111 28.6381 64.8894H22.6734Z" fill="black"></path><path fill-rule="evenodd" clip-rule="evenodd" d="M70.2362 66.2658C70.2362 63.0033 68.2652 59.6899 63.7528 59.6899C59.6035 59.6899 57.2695 62.9014 57.2695 66.2658C57.2695 69.885 59.7591 73.0455 63.8047 73.0455C66.5536 73.0455 69.2507 71.6182 69.7694 69.2733C69.8212 68.9674 69.6138 68.5596 69.1988 68.5596H67.2279C66.8648 68.5596 66.5536 68.7126 66.398 68.9674C65.8275 69.7831 64.9976 70.1909 63.8047 70.1909C62.0931 70.1909 60.9002 68.8655 60.7965 67.3872H69.147C69.925 67.3872 70.2362 66.9794 70.2362 66.2658ZM60.7965 64.8894C60.9002 63.4111 62.1969 62.3407 63.7528 62.3407C65.3088 62.3407 66.6055 63.4111 66.7611 64.8894H60.7965Z" fill="black"></path><path fill-rule="evenodd" clip-rule="evenodd" d="M42.7465 55.5611H15.6721C15.0497 55.5611 14.5311 56.0709 14.5311 56.6826L14.6348 67.1325C14.6348 67.1325 8.82576 56.7845 8.51456 56.2238C8.25523 55.714 7.63283 55.2552 6.7511 55.2552H4.52084C3.89844 55.2552 3.43164 55.765 3.43164 56.3767V71.7203C3.43164 72.332 3.95031 72.7908 4.52084 72.7908H5.9731C6.5955 72.7908 7.11416 72.281 7.11416 71.6693L7.01043 60.9135C7.01043 60.9135 12.9232 71.3635 13.1307 71.7713C13.4937 72.332 14.0643 72.7398 14.8941 72.7398H16.9169C17.5393 72.7398 18.0061 72.23 18.0061 71.6693V58.1099H42.7465C43.1614 58.1099 43.5245 57.804 43.5245 57.3452V56.2238C43.5245 55.867 43.1614 55.5611 42.7465 55.5611Z" fill="black"></path><path fill-rule="evenodd" clip-rule="evenodd" d="M38.3392 62.1877C39.5321 62.1877 40.4139 62.5955 40.7251 63.3602C40.8807 63.717 41.1919 63.768 41.5549 63.768H43.1628C43.4221 63.768 43.7333 63.5131 43.7333 63.2072C43.7333 61.3721 41.5031 59.6899 38.2873 59.6899C35.0198 59.6899 32.8414 61.2192 32.8414 63.666C32.8414 65.5521 34.3455 66.6736 36.2127 67.1323C37.0426 67.3362 38.4948 67.6931 39.2209 67.897C39.9989 68.1009 40.6732 68.3048 40.6732 68.9674C40.6732 69.987 39.584 70.3438 38.3911 70.3438C37.25 70.3438 36.1608 69.834 35.8496 69.0694C35.6422 68.6106 35.331 68.5596 34.8642 68.5596H33.2044C32.8932 68.5596 32.582 68.8145 32.582 69.1714V69.3752C32.582 71.1594 35.0198 73.0455 38.3911 73.0455C40.7769 73.0455 44.1483 72.0769 44.1483 68.9165C44.1483 67.0814 42.9035 65.807 40.8807 65.2972C40.1027 65.0933 38.1836 64.6345 37.7687 64.5326C37.0426 64.3287 36.3683 64.1248 36.3683 63.5131C36.3683 62.5446 37.25 62.1877 38.3392 62.1877Z" fill="black"></path></svg> 