<?xml version="1.0" encoding="UTF-8"?> <svg xmlns="http://www.w3.org/2000/svg" width="291" height="405" viewBox="0 0 291 405" fill="none"><path d="M208.73 20.5705C209.329 37.5525 188.215 49.2759 173.399 40.0992C167.679 36.5832 154.453 18.6114 146.183 12.3631C105.917 -18.7035 36.6486 12.559 38.6412 64.1235H81.8192C81.4372 43.4193 108.86 34.4283 121.693 48.3067C127 54.1632 135.9 66.8662 144.18 72.5268C186.801 102.799 254.066 71.7535 252.125 20.5705H208.73V20.5705ZM231.62 298.757C227.408 310.034 221.036 320.383 212.86 329.226C204.491 338.088 194.434 345.194 183.28 350.126C171.037 355.28 157.885 357.936 144.599 357.936C131.312 357.936 118.16 355.28 105.917 350.126C94.9018 345.25 85.0272 338.132 76.9252 329.226C68.719 320.408 62.346 310.052 58.1756 298.757C53.544 286.932 51.2035 274.336 51.2787 261.638C51.273 236.56 60.3867 212.334 76.9252 193.463C84.885 184.251 94.785 176.91 105.917 171.965C118.16 166.81 131.312 164.155 144.599 164.155C157.885 164.155 171.037 166.81 183.28 171.965C194.72 177.625 204.962 184.276 212.86 193.452C229.383 212.334 238.5 236.552 238.528 261.628C238.522 274.319 236.181 286.901 231.62 298.747V298.757ZM280.549 205.753C273.87 188.564 263.804 172.888 250.948 159.653C237.918 146.177 222.535 136.021 204.776 128.009C187.224 120.792 166.709 116.668 144.397 116.668C122.086 116.668 102.376 120.184 84.8133 128.009C67.251 135.835 51.8775 145.981 39.2401 159.653C13.6963 187.217 -0.338405 223.485 0.00619885 261.04C-0.139393 279.953 3.34067 298.72 10.2586 316.327C17.1004 333.17 26.9168 348.648 39.2401 362.024C51.6297 375.49 67.0548 385.647 84.8133 393.658C102.365 400.876 122.302 405 144.593 405C166.688 405 186.636 401.092 204.972 393.658C222.379 386.4 238.098 375.631 251.144 362.024C264.126 349.038 274.214 333.458 280.745 316.306C287.624 298.688 291.102 279.929 290.998 261.019C290.872 242.113 287.333 223.384 280.549 205.733" fill="black"></path></svg> 