<?xml version="1.0" encoding="UTF-8"?> <svg xmlns="http://www.w3.org/2000/svg" viewBox="0 0 573.94 339.26"><g id="Layer_2" data-name="Layer 2"><g id="Layer_1-2" data-name="Layer 1"><path d="M211.45,183.1a98.08,98.08,0,0,1-11.8-14,10.19,10.19,0,0,0,4.37-7.24,9.46,9.46,0,0,0-1.37-6c-2.4-3.93-6.71-5.14-12.45-3.55-2-3-5.81-13.15-6.26-16.8,4.87-2.11,7.72-5.7,6.63-11.23-1-5.19-4.74-7.5-10.14-7.71a96.39,96.39,0,0,1-.09-18.06c5.52-.57,9.76-2.73,10.38-8.73.52-5.18-2.24-8.42-7.21-10.3A98.56,98.56,0,0,1,189.8,62.2c5.23,1.49,9.66.68,12.53-4,2.39-3.94,1.35-7.91-3-12.72A102.22,102.22,0,0,1,211,31.65c4.34,3.05,8.91,3.93,13.15.2,3.76-3.31,4.05-7,1.57-12.67A105.44,105.44,0,0,1,241.32,10a35.33,35.33,0,0,0,3.35,3.28,8.45,8.45,0,0,0,9.47.85,9.39,9.39,0,0,0,5.39-8.2c0-.31,0-.63,0-1,0-1.76,0-1.83,1.77-2.17,4-.78,8-1.49,12-2.19,1.4-.25,2.82-.39,4.39-.6.3.9.52,1.64.8,2.36a9.41,9.41,0,0,0,7.79,6.31,8.91,8.91,0,0,0,8.77-3.85A27.93,27.93,0,0,0,297.29.05a117.51,117.51,0,0,1,18,3.12c-.77,5.68,1.27,9.7,6.7,11.57,3.93,1.34,7.52-.28,11.18-5,5.53,2.35,10.6,5.6,15.85,9-2.64,5.36-2,10.05,3,13.54,3.06,2.14,7.72,1.6,11.43-1,2.76,1.9,9.94,10.27,11.88,13.84-4.18,5.63-4.69,9.1-2,13.25,2.26,3.44,6.17,4.59,11.71,3.37,2.87,5.31,4.62,11.05,6.27,16.91-4.65,2.46-7.59,5.75-6.54,11.19.83,4.3,3.49,6.35,9.69,7.71.89,2.81,1,13.48.21,18-1.09.21-2.26.37-3.39.67a9.42,9.42,0,0,0-1.82,17.51c.64.31,1.26.66,2.08,1.09-1.72,5.84-3.27,11.67-6.26,17.14-2.72-.87-5.37-1.27-8,0a9.89,9.89,0,0,0-4.37,4c-2.36,4.18-1.59,7.9,2.73,12.73-3.13,5-7.15,9.37-11.27,13.81L362.13,181c-3.56-2.21-7.67-1.85-11.14,1a9.47,9.47,0,0,0-2.46,10.51c.29.72.62,1.44,1,2.38a78.2,78.2,0,0,1-15.75,9.26c-4.4-5.29-8-6.71-12.39-5s-6.13,4.93-5.86,11.66c-5.74,2-11.74,2.64-17.89,3.42-.53-3.32-1.76-6.07-4.59-7.89a8.48,8.48,0,0,0-5-1.48c-6,.21-8.74,3.87-9.85,9.47-6-.78-11.95-1.37-17.92-3.3,1.25-5.66-.75-9.86-6.09-12-4.48-1.76-8.09,0-12.18,5.38a75.51,75.51,0,0,1-15.55-8.94c2.46-6.23,1.92-10.14-1.75-13.18S217,179.56,211.45,183.1Zm107-59.18-.17-.57c1.58-.86,3.21-1.66,4.75-2.59q7-4.24,13.85-8.58a24.07,24.07,0,0,0,2.88-2.13,7,7,0,0,0,2.9-5.27c.2-7.19.56-14.36.7-21.55a35.82,35.82,0,0,0-.59-8.09A19.74,19.74,0,0,0,333.55,62a36.82,36.82,0,0,0-8.77-3.77c-6.64-1.88-13.29-2.2-19.4,1.81a15.92,15.92,0,0,1-8.62,2.51q-9.36.16-18.7,0A16.21,16.21,0,0,1,269.42,60a18.78,18.78,0,0,0-12.58-3c-1.19.13-2.4.15-3.58.35-5.1.89-10,2.54-14.06,5.75-5.2,4.15-8.35,9.71-8.3,16.54.07,8.06.51,16.11.66,24.17a7.55,7.55,0,0,0,3.28,6.32c2.06,1.5,4.22,2.87,6.4,4.18,4.65,2.79,9.35,5.51,14,8.27a12.65,12.65,0,0,1,1.49,1.33H245.06a3.76,3.76,0,0,0-.38.78c-1.24,8.07-.08,15.49,6.09,21.41a12.67,12.67,0,0,0,4.39,2.77,22.44,22.44,0,0,0,14.61,0c3.94-1.28,7.78-2.9,11.59-4.54a4,4,0,0,0,2.21-2.29c.8-4.14.46-8-3.18-11.11-2.65-2.3-5.14-4.78-7.76-7.11a10.07,10.07,0,0,1-3.26-7.21c-.11-1.51-.08-3-.19-4.54-.19-2.71-.39-5.41-.65-8.11-.37-3.62-2.27-5.9-5.77-7.14a60.16,60.16,0,0,1-8.92-4c-3.2-1.79-5.66-4.52-8.23-7.14.3-.23.38-.33.43-.32,6.39,1.72,12.78,3.47,19.19,5.14,3.42.9,5.23,3.24,5.94,6.51.59,2.72,1.06,5.48,1.42,8.25a41.85,41.85,0,0,0,3.15,11.51c1.34,3,3.59,4.94,6.91,5.14a84.49,84.49,0,0,0,9.81,0,7.21,7.21,0,0,0,6.48-4.63,41.62,41.62,0,0,0,2.51-7.21c.78-3.5,1.23-7.08,1.69-10.64.66-5.13,3.16-8.45,8.45-9.65s10.65-2.81,16-4.21a11,11,0,0,1,1.58-.13c-4.43,4.72-8.86,8.65-14.75,10.57-.92.29-1.8.66-2.7,1-2.85,1-4.77,2.89-5.12,6s-.57,6-.83,9c-.17,2-.26,4-.5,6a8.88,8.88,0,0,1-2.76,5.68c-2.4,2.22-4.63,4.64-7.16,6.71a11.07,11.07,0,0,0-4.27,9.64,4.6,4.6,0,0,0,3.39,4.65,58.14,58.14,0,0,1,7.57,3c4.4,2.24,9,2.53,13.78,2.1a12.31,12.31,0,0,0,8.27-3.9c3.48-3.81,6-8.08,6.06-13.42,0-2.31-.09-4.63-.19-6.93a8.78,8.78,0,0,0-.41-1.67Zm-57.1,31.56c.55,2.59.88,4.87,1.54,7.07a9.26,9.26,0,0,0,5.85,6.2,24.73,24.73,0,0,0,16.9.29,5.89,5.89,0,0,1,3.93,0,23.81,23.81,0,0,0,11.36,1.06c8.61-1.31,10.37-4.19,11.92-11.19a24.73,24.73,0,0,0,.32-3.26c-3.9-.79-7.5-1.47-11.08-2.26-8.69-1.9-17.39-2.47-26.16-.55-2.88.64-5.77,1.29-8.67,1.83C265.45,155,263.62,155.19,261.33,155.48Z"></path><path d="M560.72,312v-43.6h13.22v70c-.69.05-1.15.12-1.6.12-3.2,0-6.39,0-9.58,0a2,2,0,0,1-1.9-1c-5.39-8-10.84-16-16.26-24-2-3-4-6-6-9s-4.12-6-6.19-9c-.2-.29-.46-.53-1-1.11-.06.88-.12,1.41-.12,1.94q0,12.07,0,24.16v17.64c-1.19.46-11.11.57-13.15.18v-70a10.14,10.14,0,0,1,1.2-.16c3.19-.05,6.39,0,9.57-.14a2.75,2.75,0,0,1,2.67,1.5c1.42,2.19,2.88,4.36,4.34,6.52l6.93,10.26q4,6,8.11,12.1,4.46,6.63,8.94,13.24a2.46,2.46,0,0,0,.44.41Z"></path><path d="M500.76,303.37a35.93,35.93,0,1,1-35.89-36A35.78,35.78,0,0,1,500.76,303.37Zm-13.34,0a22.61,22.61,0,1,0-22.58,22.48C477.24,325.91,487.64,315.39,487.42,303.38Z"></path><path d="M0,303.29c-.31-19.23,15.55-36,35.94-36A36,36,0,1,1,0,303.29Zm13.25-.07a22.63,22.63,0,0,0,45.25.15,22.63,22.63,0,0,0-45.25-.15Z"></path><path d="M150.72,338.49c0-.67-.07-1.23-.07-1.79q0-33.4,0-66.81c0-.32,0-.63,0-.94,0-.74.38-1,1.07-1h.94c6.7,0,13.4,0,20.1,0a39,39,0,0,1,11.31,1.61,35.78,35.78,0,0,1,23.56,23.9,35,35,0,0,1,.63,17.05,34.27,34.27,0,0,1-8.5,16.52,33.54,33.54,0,0,1-11.32,8.26,35.15,35.15,0,0,1-8.8,2.76,44.2,44.2,0,0,1-6.4.53c-7.17.07-14.34,0-21.51,0C151.47,338.58,151.21,338.54,150.72,338.49Zm13.37-13.42c.7,0,1.16.07,1.63.07,2.61,0,5.23,0,7.85,0a23.68,23.68,0,0,0,11.7-3,19.58,19.58,0,0,0,9-10.65,23.58,23.58,0,0,0-.25-17.31,19,19,0,0,0-15.84-12.38,59.69,59.69,0,0,0-6.56-.39c-2.1-.06-4.19,0-6.28,0-1.18,0-1.34.21-1.41,1.38v.47q0,20,0,40C163.93,323.8,164,324.36,164.09,325.07Z"></path><path d="M314.3,308.82l16.15,29.44a10,10,0,0,1-1.26.23c-4.24,0-8.48,0-12.72,0a1.94,1.94,0,0,1-1.93-1.25Q311.3,331.11,308,325c-2.33-4.32-4.71-8.6-7-12.94a2,2,0,0,0-2.11-1.23c-1,.07-2.05.08-3.24.11v27.21c-1.29.45-11.68.51-13.31.12V268.09a13.68,13.68,0,0,1,1.51-.17c6.59,0,13.19,0,19.78,0a25.36,25.36,0,0,1,8,1.22,19,19,0,0,1,9.83,7.42,24,24,0,0,1,3.65,18.26,18.72,18.72,0,0,1-4.38,8.89A22.8,22.8,0,0,1,314.3,308.82Zm-18.72-18.61c0,2.45,0,4.91,0,7.36,0,1.14.15,1.29,1.26,1.3,2.67,0,5.33,0,8,0a7,7,0,0,0,5.19-2.53,8.75,8.75,0,0,0,2.25-5.54c.29-4.63-2.43-9.58-8.64-9.38-2.14.07-4.29,0-6.43,0-1.49,0-1.62.14-1.63,1.61C295.57,285.41,295.58,287.81,295.58,290.21Z"></path><path d="M101.38,338.41H88.24c0-.58-.13-1.13-.13-1.67,0-4,0-7.95,0-11.92V268.08c.73-.07,1.28-.16,1.83-.17,6.44,0,12.88,0,19.32,0a25.73,25.73,0,0,1,8.49,1.33,19.19,19.19,0,0,1,11.07,9.86,24,24,0,0,1,1.24,18.74,17.89,17.89,0,0,1-7.21,9.23c-.81.56-1.63,1.1-2.64,1.77,5.2,9.85,10.75,19.47,16,29.46a11.81,11.81,0,0,1-1.37.18c-4.19,0-8.37,0-12.56,0a1.78,1.78,0,0,1-1.82-1.12c-4.31-8.06-8.62-16.12-13-24.13-1.52-2.77-.7-2.41-4-2.44H103c-1.4.05-1.53.16-1.56,1.54,0,1,0,2.09,0,3.13v22.92Zm0-48.27h0c0,2.45,0,4.91,0,7.36,0,1.17.18,1.36,1.23,1.37,2.72,0,5.45.12,8.16-.06a7.37,7.37,0,0,0,6.66-5.13,10.86,10.86,0,0,0,.52-4.49,7.7,7.7,0,0,0-7.93-7.78c-2.3-.05-4.6,0-6.91,0-1.58,0-1.72.14-1.74,1.68C101.37,285.44,101.39,287.79,101.39,290.14Z"></path><path d="M226.22,268H264.4c.44,1.11.57,10.8.19,13.28-.57,0-1.17.09-1.78.1H241.93c-.42,0-.84,0-1.25,0-1,.08-1.21.28-1.22,1.25q0,6.27,0,12.55c0,1,.18,1.12,1.23,1.18.42,0,.84,0,1.26,0h22.52c.4,1.45.4,11.93,0,13.4H241.79c-2.34,0-2.34,0-2.34,2.34,0,3.71,0,7.42,0,11.13,0,1.81.06,1.86,1.84,1.86h23.2c.38,1.38.38,12,0,13.38H226.35c0-.55-.12-1.09-.13-1.64,0-3,0-6,0-8.94V268Z"></path><path d="M381.65,338.5H344.86V268.33a77.8,77.8,0,0,1,13.13,0c0,.67.1,1.38.1,2.1v51.89c0,2.81,0,2.81,2.77,2.81h20.79Z"></path><path d="M411.47,338.27c-1.36.33-11.68.32-13,0V268.39c1.21-.41,11.39-.47,12.95-.1C411.75,269.51,411.79,336.77,411.47,338.27Z"></path></g></g></svg> 