<?xml version="1.0" encoding="UTF-8"?> <svg xmlns="http://www.w3.org/2000/svg" viewBox="0 0 174.43 174.43"><defs><style>.cls-1{fill:#f1f1f1;stroke:#000;stroke-miterlimit:10;stroke-width:4px;}</style></defs><g id="Layer_2" data-name="Layer 2"><g id="Layer_1-2" data-name="Layer 1"><circle class="cls-1" cx="87.21" cy="87.21" r="85.21"></circle><path d="M89.75,144.89H73.9V46.76H89.66l.25,4.41c.34-.06.67,0,.86-.16,9.59-7.55,20.19-7.32,30.72-3s15,13.28,15.69,24c.48,7.88.63,16-.56,23.73-2.6,16.84-15.15,24.54-31.88,23.43-5.26-.35-10.23-1.62-15-5.49ZM89.54,82,90,82c0,2.65-.15,5.31,0,7.94.61,9.56,5.69,15.46,13.67,16,9.61.66,16-3.67,17.21-13.37a84.11,84.11,0,0,0-.29-22.13c-1.14-8.11-7-12-15.34-11.8-8,.16-13.22,4.45-14.68,12.42C89.89,74.63,89.86,78.32,89.54,82Z"></path><path d="M27.84,103.87a15.32,15.32,0,1,1,30.63.08,15.43,15.43,0,0,1-15.23,15.27A15.26,15.26,0,0,1,27.84,103.87Z"></path></g></g></svg> 