<?xml version="1.0" encoding="UTF-8"?> <svg xmlns="http://www.w3.org/2000/svg" id="Layer_1" data-name="Layer 1" viewBox="0 0 342.39 381.92"><defs><style>.cls-1{fill:#020202;}.cls-2{fill:#fefefe;}</style></defs><path d="M391.67,275.65q-63.76,0-127.53,0c-1.47,0-1.76-.36-1.76-1.78q.06-127.7,0-255.38c0-1.46.37-1.76,1.79-1.76q127.68.06,255.35,0c1.46,0,1.76.36,1.76,1.78q-.06,127.68,0,255.37c0,1.47-.36,1.77-1.78,1.77Q455.58,275.62,391.67,275.65Zm.22-188.16q-4.61,0-9.19.29a114.84,114.84,0,0,0-37.36,8.41c-11.06,4.64-20.92,11-28.69,20.3-13.71,16.41-14.91,37.73-3,55.21,7,10.35,16.79,17.48,27.95,22.79,14.81,7,30.56,10.07,46.87,10.44,17.58.38,34.65-2.16,50.87-9.27,11.31-4.95,21.27-11.76,28.88-21.65,12.72-16.55,13.12-37.49,1-54.46-7-9.8-16.47-16.6-27.25-21.67C426.1,90.43,409.28,87.56,391.89,87.49Z" transform="translate(-220.75 -16.77)"></path><path class="cls-1" d="M391.7,368.37a30.25,30.25,0,1,1,30.22,30.32A30.22,30.22,0,0,1,391.7,368.37Zm13.21-.95c0,5.39,1.26,9.49,3.95,13.11,5.95,8,16.73,9.17,23.92,2.52,8.3-7.66,8.27-21.78,0-29.42a15.53,15.53,0,0,0-19.82-1.38A18.84,18.84,0,0,0,404.91,367.42Z" transform="translate(-220.75 -16.77)"></path><path class="cls-1" d="M272.42,368.32a30.24,30.24,0,1,1,30.16,30.37A30.21,30.21,0,0,1,272.42,368.32Zm47.27,1.29a22.09,22.09,0,0,0-2.06-10.33c-5.76-11.81-20.36-13.41-28.08-3.07a20.72,20.72,0,0,0,.52,25c6.66,8.18,18.19,8.29,25,.23A19.15,19.15,0,0,0,319.69,369.61Z" transform="translate(-220.75 -16.77)"></path><path class="cls-1" d="M563.14,397.38c-4.7,0-9.28,0-13.87,0-.77,0-.78-.6-.95-1-1.49-3.89-3-7.78-4.42-11.68a1.54,1.54,0,0,0-1.71-1.26c-7.14.06-14.28,0-21.42,0a1.46,1.46,0,0,0-1.63,1.15c-1.44,4-3,7.87-4.45,11.82a1.29,1.29,0,0,1-1.43,1q-6.18-.07-12.36,0c-1.08,0-1-.3-.7-1.14q11.28-27.63,22.51-55.29a1.33,1.33,0,0,1,1.48-1c4.89,0,9.78,0,14.67,0a1.22,1.22,0,0,1,1.39.86q11.31,27.86,22.67,55.69C563,396.79,563,397,563.14,397.38ZM523.5,373.17c5,0,9.79,0,14.62,0,1.11,0,1.39-.13.94-1.28-2.12-5.39-4.14-10.8-6.21-16.21-.42-1.1-.84-2.2-1.36-3.54C528.78,359.3,526.16,366.16,523.5,373.17Z" transform="translate(-220.75 -16.77)"></path><path class="cls-1" d="M333.25,340c4.77,0,9.28,0,13.78,0,.81,0,1.05.5,1.38,1q6.6,10.35,13.22,20.69c.28.44.58.87.95,1.43l4.22-6.59c3.27-5.12,6.56-10.23,9.78-15.38a2.21,2.21,0,0,1,2.18-1.17c4.3.06,8.6,0,13.13,0-1.78,2.79-3.43,5.4-5.09,8q-8.61,13.5-17.23,27a4,4,0,0,0-.64,2.28c0,6.23,0,12.46,0,18.69,0,1.16-.34,1.42-1.44,1.4q-5-.11-10.06,0c-1,0-1.36-.2-1.35-1.31.07-6.23,0-12.46.06-18.69a4.74,4.74,0,0,0-.81-2.66q-10.68-16.69-21.32-33.41C333.82,341,333.61,340.63,333.25,340Z" transform="translate(-220.75 -16.77)"></path><path class="cls-1" d="M245.29,340c7.67,0,15.34,0,23,0,1.33,0,1.57.39,1.53,1.61-.09,2.72-.08,5.46,0,8.19,0,1-.31,1.26-1.29,1.25-5.08,0-10.16,0-15.24-.05-1.2,0-1.6.19-1.6,1.53.06,14.43,0,28.85.08,43.28,0,1.38-.42,1.63-1.67,1.6q-4.81-.12-9.63,0c-1.22,0-1.61-.22-1.6-1.54.05-14.43,0-28.85.06-43.28,0-1.21-.2-1.62-1.53-1.6-5.13.1-10.26,0-15.38.06-1,0-1.31-.24-1.28-1.26.07-2.78.08-5.56,0-8.34,0-1.1.23-1.45,1.4-1.44C229.86,340.07,237.58,340,245.29,340Z" transform="translate(-220.75 -16.77)"></path><path class="cls-1" d="M478.42,340c7.67,0,15.33,0,23,0,1.24,0,1.49.35,1.45,1.51-.09,2.78-.07,5.56,0,8.34,0,.93-.23,1.2-1.18,1.19-5.13,0-10.26,0-15.38-.06-1.34,0-1.54.4-1.54,1.61.05,14.42,0,28.85.06,43.27,0,1.28-.31,1.58-1.56,1.55-3.35-.1-6.71-.08-10.06,0-1,0-1.24-.3-1.24-1.28,0-14.52,0-29,.06-43.56,0-1.27-.29-1.59-1.57-1.57-5.12.08-10.25,0-15.38.05-.89,0-1.23-.17-1.21-1.16.07-2.87.08-5.75,0-8.62,0-1,.26-1.26,1.26-1.26C462.89,340.06,470.66,340,478.42,340Z" transform="translate(-220.75 -16.77)"></path><path class="cls-2" d="M391.89,87.49c17.39.07,34.21,2.94,50.05,10.39,10.78,5.07,20.24,11.87,27.25,21.67,12.14,17,11.74,37.91-1,54.46-7.61,9.89-17.57,16.7-28.88,21.65-16.22,7.11-33.29,9.65-50.87,9.27-16.31-.37-32.06-3.4-46.87-10.44-11.16-5.31-20.91-12.44-27.95-22.79-11.9-17.48-10.7-38.8,3-55.21,7.77-9.3,17.63-15.66,28.69-20.3a114.84,114.84,0,0,1,37.36-8.41Q387.29,87.48,391.89,87.49Zm64.34,31.28A16.42,16.42,0,0,1,454.4,125c-2.5,4.63-6.42,7.81-10.86,10.39-9.27,5.36-19.48,7.8-30,9.36-.85.13-1.11.37-1.12,1.22-.06,3.93-.15,7.85-.47,11.76-.72,8.62-2.05,17.11-5.2,25.22-1.8,4.63-4,9-7.78,12.42-.92.83-2,1.5-3.16,2.37a94.13,94.13,0,0,0,27.46-5.24c12-4.3,22.62-10.6,30.9-20.42,9.93-11.78,13.57-25.09,9.15-40.17A38,38,0,0,0,456.23,118.77Zm-69,78.84a21.35,21.35,0,0,1-8-8.54,57.92,57.92,0,0,1-6.06-17.85,130.24,130.24,0,0,1-2.11-25c0-.76,0-1.31-1-1.44A96,96,0,0,1,356.4,142c-7.37-2-14.47-4.73-20.61-9.44-4.43-3.4-7.76-7.53-8.49-13.31,0-.06-.14-.1-.28-.19-.29.36-.59.72-.87,1.1a39,39,0,0,0-7.25,30.57c1.75,10.54,7.29,19,15,26.19,11.51,10.66,25.37,16.52,40.65,19.35A78,78,0,0,0,387.23,197.61Zm0-102.74c-.33-.29-.67-.14-1-.13a108.56,108.56,0,0,0-29.47,5.12c-5.43,1.8-10.64,4-15.09,7.75-5.18,4.32-5.27,9.67-.27,14.23a27.42,27.42,0,0,0,8.43,5.09,79.73,79.73,0,0,0,19.91,4.74c2,.25,1.93.3,2.15-1.62a82.53,82.53,0,0,1,5-21.77C379.06,102.86,381.74,97.76,387.25,94.87Zm9.11-.07c4.26,2.33,6.83,6.08,8.84,10.27,3.62,7.56,5.24,15.66,6.24,23.92.35,2.86.33,2.93,3.18,2.55a74,74,0,0,0,19.71-4.92c3.55-1.52,6.88-3.43,9.31-6.54,3-3.84,2.73-7.89-.68-11.35a29.12,29.12,0,0,0-8.79-5.89C422.2,97.31,409.45,95.33,396.36,94.8Zm-18,54.47a63.07,63.07,0,0,0,2.54,17.7c1.12,3.54,2.61,6.91,5.36,9.53,3.41,3.25,7.4,3.28,10.89.11a15.77,15.77,0,0,0,3.59-5c3.81-7.94,4.38-16.47,4.56-25.08,0-.83-.46-.76-1-.72a168,168,0,0,1-22.66.15c-1.08-.07-2.17-.08-3.25-.12Zm13.42-16.4c3.84.11,7.66-.17,11.49-.24.88,0,1.16-.26,1-1.19a56.78,56.78,0,0,0-3.79-14.1c-1.24-2.83-2.69-5.53-5.16-7.49a5.29,5.29,0,0,0-7.1,0,13.78,13.78,0,0,0-3.34,3.91c-3.35,5.52-4.68,11.68-5.71,17.94-.14.87.31.94,1,1C384,132.72,387.89,133,391.77,132.87Z" transform="translate(-220.75 -16.77)"></path><path d="M456.23,118.77a38,38,0,0,1,7.14,13.16c4.42,15.08.78,28.39-9.15,40.17-8.28,9.82-18.94,16.12-30.9,20.42a94.13,94.13,0,0,1-27.46,5.24c1.17-.87,2.24-1.54,3.16-2.37,3.77-3.4,6-7.79,7.78-12.42,3.15-8.11,4.48-16.6,5.2-25.22.32-3.91.41-7.83.47-11.76,0-.85.27-1.09,1.12-1.22,10.47-1.56,20.68-4,30-9.36,4.44-2.58,8.36-5.76,10.86-10.39A16.42,16.42,0,0,0,456.23,118.77Z" transform="translate(-220.75 -16.77)"></path><path d="M387.23,197.61a78,78,0,0,1-12.68-1.3c-15.28-2.83-29.14-8.69-40.65-19.35-7.71-7.14-13.25-15.65-15-26.19a39,39,0,0,1,7.25-30.57c.28-.38.58-.74.87-1.1.14.09.28.13.28.19.73,5.78,4.06,9.91,8.49,13.31,6.14,4.71,13.24,7.4,20.61,9.44A96,96,0,0,0,370,144.77c1.07.13,1,.68,1,1.44a130.24,130.24,0,0,0,2.11,25,57.92,57.92,0,0,0,6.06,17.85A21.35,21.35,0,0,0,387.23,197.61Z" transform="translate(-220.75 -16.77)"></path><path d="M387.25,94.87c-5.51,2.89-8.19,8-10.35,13.41a82.53,82.53,0,0,0-5,21.77c-.22,1.92-.19,1.87-2.15,1.62a79.73,79.73,0,0,1-19.91-4.74,27.42,27.42,0,0,1-8.43-5.09c-5-4.56-4.91-9.91.27-14.23,4.45-3.71,9.66-6,15.09-7.75a108.56,108.56,0,0,1,29.47-5.12C386.58,94.73,386.92,94.58,387.25,94.87Z" transform="translate(-220.75 -16.77)"></path><path d="M396.36,94.8c13.09.53,25.84,2.51,37.81,8a29.12,29.12,0,0,1,8.79,5.89c3.41,3.46,3.67,7.51.68,11.35-2.43,3.11-5.76,5-9.31,6.54a74,74,0,0,1-19.71,4.92c-2.85.38-2.83.31-3.18-2.55-1-8.26-2.62-16.36-6.24-23.92C403.19,100.88,400.62,97.13,396.36,94.8Z" transform="translate(-220.75 -16.77)"></path><path d="M378.35,149.27v-3.41c1.08,0,2.17,0,3.25.12a168,168,0,0,0,22.66-.15c.57,0,1-.11,1,.72-.18,8.61-.75,17.14-4.56,25.08a15.77,15.77,0,0,1-3.59,5c-3.49,3.17-7.48,3.14-10.89-.11-2.75-2.62-4.24-6-5.36-9.53A63.07,63.07,0,0,1,378.35,149.27Z" transform="translate(-220.75 -16.77)"></path><path d="M391.77,132.87c-3.88.1-7.75-.15-11.63-.26-.65,0-1.1-.09-1-1,1-6.26,2.36-12.42,5.71-17.94a13.78,13.78,0,0,1,3.34-3.91,5.29,5.29,0,0,1,7.1,0c2.47,2,3.92,4.66,5.16,7.49a56.78,56.78,0,0,1,3.79,14.1c.14.93-.14,1.17-1,1.19C399.43,132.7,395.61,133,391.77,132.87Z" transform="translate(-220.75 -16.77)"></path></svg> 